<svg width="19" height="19" viewBox="0 0 19 19" fill="none" xmlns="http://www.w3.org/2000/svg">
<g id="car-repair 1">
<path id="Vector" d="M13.6562 5.9375H16.0312C16.3578 5.9375 16.625 5.67031 16.625 5.34375V1.78125C16.625 1.45469 16.3578 1.1875 16.0312 1.1875H13.6562C13.3297 1.1875 13.0625 1.45469 13.0625 1.78125V2.96875H11.1744C10.925 2.28 10.2719 1.78125 9.5 1.78125C8.72813 1.78125 8.075 2.28 7.82563 2.96875H5.9375V1.78125C5.9375 1.45469 5.67031 1.1875 5.34375 1.1875H2.96875C2.64219 1.1875 2.375 1.45469 2.375 1.78125V5.34375C2.375 5.67031 2.64219 5.9375 2.96875 5.9375H5.34375C5.67031 5.9375 5.9375 5.67031 5.9375 5.34375V4.15625H7.82563C8.00375 4.66094 8.40156 5.05281 8.90625 5.23687V13.7691C8.40156 13.9472 8.00969 14.345 7.82563 14.8497H5.9375V13.6622C5.9375 13.3356 5.67031 13.0684 5.34375 13.0684H2.96875C2.64219 13.0684 2.375 13.3356 2.375 13.6622V17.2247C2.375 17.5513 2.64219 17.8184 2.96875 17.8184H5.34375C5.67031 17.8184 5.9375 17.5513 5.9375 17.2247V16.0372H7.82563C8.06906 16.7259 8.72219 17.2247 9.5 17.2247C10.2778 17.2247 10.925 16.7259 11.1744 16.0372H13.0625V17.2247C13.0625 17.5513 13.3297 17.8184 13.6562 17.8184H16.0312C16.3578 17.8184 16.625 17.5513 16.625 17.2247V13.6622C16.625 13.3356 16.3578 13.0684 16.0312 13.0684H13.6562C13.3297 13.0684 13.0625 13.3356 13.0625 13.6622V14.8497H11.1744C10.9963 14.345 10.5984 13.9531 10.0938 13.7691V5.23687C10.5984 5.05875 10.9903 4.66094 11.1744 4.15625H13.0625V5.34375C13.0625 5.67031 13.3297 5.9375 13.6562 5.9375ZM14.25 2.375H15.4375V4.75H14.25V2.375ZM4.75 4.75H3.5625V2.375H4.75V4.75ZM4.75 16.625H3.5625V14.25H4.75V16.625ZM14.25 14.25H15.4375V16.625H14.25V14.25ZM9.5 16.0312C9.17344 16.0312 8.90625 15.7641 8.90625 15.4375C8.90625 15.1109 9.17344 14.8438 9.5 14.8438C9.82656 14.8438 10.0938 15.1109 10.0938 15.4375C10.0938 15.7641 9.82656 16.0312 9.5 16.0312ZM9.5 4.15625C9.17344 4.15625 8.90625 3.88906 8.90625 3.5625C8.90625 3.23594 9.17344 2.96875 9.5 2.96875C9.82656 2.96875 10.0938 3.23594 10.0938 3.5625C10.0938 3.88906 9.82656 4.15625 9.5 4.15625Z" fill="#262626"/>
</g>
</svg>
