<svg width="25" height="25" viewBox="0 0 25 25" fill="none" xmlns="http://www.w3.org/2000/svg">
<g id="engine (1) 1">
<g id="Group">
<g id="Group_2">
<g id="Group_3">
<path id="Vector" d="M24.2188 9.375H21.875C21.443 9.375 21.0938 9.725 21.0938 10.1562V10.9375H20.3125V10.1562C20.3125 9.725 19.9633 9.375 19.5312 9.375H18.2922L16.1781 7.26094C16.1063 7.18828 16.0195 7.13125 15.9234 7.09141C15.8281 7.05234 15.7266 7.03125 15.625 7.03125H13.2812V5.46875H14.8438C15.2758 5.46875 15.625 5.11875 15.625 4.6875C15.625 4.25625 15.2758 3.90625 14.8438 3.90625H7.8125C7.38047 3.90625 7.03125 4.25625 7.03125 4.6875C7.03125 5.11875 7.38047 5.46875 7.8125 5.46875H9.375V7.03125H7.03125C7.00625 7.03125 6.98516 7.04297 6.96094 7.04531C6.90469 7.05078 6.85234 7.06094 6.79922 7.07813C6.75313 7.09297 6.71094 7.10937 6.66875 7.13203C6.625 7.15547 6.58516 7.18281 6.54531 7.21484C6.50391 7.24922 6.46797 7.28516 6.43437 7.32656C6.41797 7.34609 6.39609 7.35781 6.38125 7.37969L5.05078 9.375H3.125C2.69297 9.375 2.34375 9.725 2.34375 10.1562V12.5H1.5625V10.1562C1.5625 9.725 1.21328 9.375 0.78125 9.375C0.349219 9.375 0 9.725 0 10.1562V17.1875C0 17.6187 0.349219 17.9688 0.78125 17.9688C1.21328 17.9688 1.5625 17.6187 1.5625 17.1875V14.0625H2.34375V17.1875C2.34375 17.6187 2.69297 17.9688 3.125 17.9688H4.98594L6.33281 20.6617C6.36953 20.7352 6.41797 20.7992 6.47266 20.8555C6.48359 20.8672 6.49766 20.875 6.50937 20.8852C6.56484 20.9359 6.62656 20.9766 6.69375 21.0094C6.71641 21.0203 6.73906 21.0305 6.76328 21.0391C6.84844 21.0711 6.9375 21.093 7.02969 21.0938C7.03047 21.0938 7.03047 21.0938 7.03125 21.0938H16.4062C16.5203 21.0938 16.6273 21.0664 16.725 21.0227C16.7508 21.0109 16.7703 20.9898 16.7945 20.9758C16.8656 20.9336 16.9312 20.8867 16.9859 20.825C16.9945 20.8148 17.0078 20.8117 17.0164 20.8008L19.907 17.1875H21.0938V17.9688C21.0938 18.4 21.443 18.75 21.875 18.75H24.2188C24.6508 18.75 25 18.4 25 17.9688V10.1562C25 9.725 24.6508 9.375 24.2188 9.375ZM23.4375 17.1875H22.6562V16.4062C22.6562 15.975 22.307 15.625 21.875 15.625H19.5312C19.5164 15.625 19.5039 15.6328 19.4891 15.6336C19.4359 15.6367 19.3859 15.6508 19.3344 15.6648C19.2859 15.6781 19.2383 15.6875 19.1938 15.7086C19.1531 15.7281 19.1187 15.7578 19.0812 15.7844C19.0359 15.8172 18.9914 15.8484 18.9539 15.8906C18.9438 15.9016 18.9305 15.9062 18.9211 15.918L16.0305 19.5312H7.51406L6.16719 16.8383C6.15 16.8039 6.12031 16.7812 6.09844 16.75C6.06563 16.7031 6.03672 16.6562 5.99453 16.6172C5.95703 16.5828 5.91406 16.5602 5.87109 16.5344C5.82891 16.5078 5.78984 16.4797 5.74219 16.4617C5.68828 16.4414 5.63125 16.4359 5.57344 16.4273C5.53828 16.4227 5.50625 16.4062 5.46875 16.4062H3.90625V10.9375H5.46875H5.46953C5.5625 10.9375 5.65313 10.9156 5.73984 10.8828C5.75703 10.8766 5.77422 10.8711 5.79141 10.8633C5.87031 10.8273 5.94297 10.7797 6.00703 10.718C6.01953 10.7062 6.02891 10.6922 6.04063 10.6797C6.06719 10.6508 6.09609 10.6234 6.11797 10.5898L7.44922 8.59375H10.1562C10.5883 8.59375 10.9375 8.24375 10.9375 7.8125V5.46875H11.7188V7.8125C11.7188 8.24375 12.068 8.59375 12.5 8.59375H15.3016L17.4156 10.7078C17.4875 10.7805 17.5742 10.8375 17.6703 10.8773C17.7656 10.9164 17.8672 10.9375 17.9688 10.9375H18.75V11.7188C18.75 12.15 19.0992 12.5 19.5312 12.5H21.875C22.307 12.5 22.6562 12.15 22.6562 11.7188V10.9375H23.4375V17.1875Z" fill="#262626"/>
<path id="Vector_2" d="M15.2813 11.0713C14.9227 10.8291 14.4383 10.9237 14.1961 11.2807L10.9617 16.0612L9.07033 14.6018C8.72736 14.3377 8.2383 14.4018 7.97502 14.7432C7.71174 15.0846 7.77502 15.5752 8.11643 15.8385L10.6664 17.8057C10.8039 17.9127 10.9719 17.969 11.1438 17.969C11.1852 17.969 11.2258 17.9659 11.268 17.9588C11.4805 17.9245 11.6703 17.8041 11.7906 17.6252L15.4906 12.1565C15.7328 11.7987 15.6383 11.3135 15.2813 11.0713Z" fill="#262626"/>
</g>
</g>
</g>
</g>
</svg>
