<?xml version="1.0" encoding="UTF-8" standalone="no"?>
<!DOCTYPE svg PUBLIC "-//W3C//DTD SVG 1.1//EN" "http://www.w3.org/Graphics/SVG/1.1/DTD/svg11.dtd">
<!-- Created with Vectornator (http://vectornator.io/) -->
<svg height="100%" stroke-miterlimit="10" style="fill-rule:nonzero;clip-rule:evenodd;stroke-linecap:round;stroke-linejoin:round;" version="1.1" viewBox="0 0 200 30" width="100%" xml:space="preserve" xmlns="http://www.w3.org/2000/svg" xmlns:vectornator="http://vectornator.io" xmlns:xlink="http://www.w3.org/1999/xlink">
<defs/>
<g id="Слой-1" vectornator:layerName="Слой 1">
<g opacity="1" vectornator:layerName="Группа 2">
<g opacity="1" vectornator:layerName="Группа 1">
<path d="M41.8855 28.7109L29.5248 28.7109L21.2336 21.8269L9.5194 21.8269L9.5194 28.7109L1 28.7109L1 14.7148L24.6566 14.7148C26.1018 14.7148 27.2935 14.4992 28.2317 14.0682C29.4234 13.5104 30.0192 12.6863 30.0192 11.596C30.0192 9.46619 28.2317 8.40127 24.6566 8.40127L1 8.40127L6.55282 1.28909L23.8579 1.28909C28.1429 1.28909 31.6166 2.10046 34.2789 3.7232C37.2708 5.57415 38.7668 8.2111 38.7668 11.6341C38.7668 13.5611 38.1646 15.3043 36.9602 16.8636C35.7559 18.423 34.0887 19.621 31.9589 20.4577L41.8855 28.7109Z" fill="#000000" fill-rule="nonzero" opacity="1" stroke="none"/>
<path d="M85.4333 14.7528C85.4333 18.7589 83.8677 22.0868 80.7363 24.7365C77.6049 27.3861 73.6558 28.7109 68.889 28.7109L60.6358 28.7109C55.8436 28.7109 51.8819 27.3861 48.7505 24.7365C45.6191 22.0868 44.0534 18.7589 44.0534 14.7528C44.0534 10.7466 45.6064 7.50115 48.7124 5.01633C51.8185 2.5315 55.7929 1.28909 60.6358 1.28909L68.889 1.28909C73.7318 1.28909 77.7 2.5315 80.7933 5.01633C83.8867 7.50115 85.4333 10.7466 85.4333 14.7528ZM68.889 8.40127L60.6358 8.40127C58.2778 8.40127 56.3381 9.02881 54.8167 10.2839C53.2954 11.539 52.5348 13.1427 52.5348 15.0951C52.5348 17.0474 53.2954 18.6258 54.8167 19.8302C56.3381 21.0346 58.2778 21.6368 60.6358 21.6368L68.889 21.6368C71.247 21.6368 73.1867 21.0346 74.708 19.8302C76.2294 18.6258 76.99 17.0474 76.99 15.0951C76.99 13.1427 76.223 11.539 74.689 10.2839C73.155 9.02881 71.2217 8.40127 68.889 8.40127Z" fill="#000000" fill-rule="nonzero" opacity="1" stroke="none"/>
<path d="M122.896 14.7528C122.896 18.7589 121.33 22.0868 118.199 24.7365C115.067 27.3861 111.118 28.7109 106.352 28.7109L87.9816 28.7109L87.9816 11.596L96.501 11.596L96.501 21.6368L106.352 21.6368C108.71 21.6368 110.649 21.0346 112.171 19.8302C113.692 18.6258 114.453 17.0474 114.453 15.0951C114.453 13.1427 113.686 11.539 112.152 10.2839C110.618 9.02881 108.684 8.40127 106.352 8.40127L87.9816 8.40127L93.3823 1.28909L106.352 1.28909C111.194 1.28909 115.163 2.5315 118.256 5.01633C121.349 7.50115 122.896 10.7466 122.896 14.7528Z" fill="#000000" fill-rule="nonzero" opacity="1" stroke="none"/>
<path d="M160.358 14.7528C160.358 18.7589 158.793 22.0868 155.661 24.7365C152.53 27.3861 148.581 28.7109 143.814 28.7109L125.444 28.7109L125.444 11.596L133.964 11.596L133.964 21.6368L143.814 21.6368C146.172 21.6368 148.112 21.0346 149.633 19.8302C151.154 18.6258 151.915 17.0474 151.915 15.0951C151.915 13.1427 151.148 11.539 149.614 10.2839C148.08 9.02881 146.147 8.40127 143.814 8.40127L125.444 8.40127L130.845 1.28909L143.814 1.28909C148.657 1.28909 152.625 2.5315 155.718 5.01633C158.812 7.50115 160.358 10.7466 160.358 14.7528Z" fill="#000000" fill-rule="nonzero" opacity="1" stroke="none"/>
<path d="M198.125 1.28909L192.648 8.40127L173.252 8.40127C172.212 8.40127 171.692 8.76892 171.692 9.50423C171.692 10.2395 172.212 10.6072 173.252 10.6072L187.21 10.6072C190.531 10.6072 193.308 11.4186 195.539 13.0413C197.846 14.7655 199 16.9967 199 19.7351C199 22.4481 197.834 24.6414 195.501 26.3148C193.32 27.9122 190.557 28.7109 187.21 28.7109L162.108 28.7109L167.585 21.6368L187.21 21.6368C188.097 21.6368 188.896 21.4846 189.606 21.1804C190.519 20.8 190.975 20.2803 190.975 19.621C190.975 18.9364 190.519 18.4166 189.606 18.0617C188.921 17.8081 188.123 17.6813 187.21 17.6813L173.252 17.6813C170.158 17.6813 167.572 16.9714 165.493 15.5515C163.262 14.0302 162.146 12.0144 162.146 9.50423C162.146 6.96869 163.262 4.94026 165.493 3.41894C167.572 1.99904 170.158 1.28909 173.252 1.28909L198.125 1.28909Z" fill="#000000" fill-rule="nonzero" opacity="1" stroke="none"/>
</g>
</g>
</g>
</svg>
