<svg width="42.255798" height="42.255760" viewBox="0 0 42.2558 42.2558" fill="none" xmlns="http://www.w3.org/2000/svg" xmlns:xlink="http://www.w3.org/1999/xlink">
	<desc>
			Created with Pixso.
	</desc>
	<defs/>
	<path id="Vector" d="M0 21.12C0 9.45 9.45 0 21.12 0C32.79 0 42.25 9.45 42.25 21.12C42.25 32.79 32.79 42.25 21.12 42.25C9.45 42.25 0 32.79 0 21.12Z" fill="#000000" fill-opacity="1.000000" fill-rule="nonzero"/>
	<path id="Vector" d="M16.94 4.19C16.99 4.27 17.14 4.48 17.28 4.68C18.83 6.9 19.62 9.2 19.49 11.1C19.42 12.16 18.97 13.44 18.37 14.26C18.27 14.39 18.13 14.6 18.06 14.71C17.85 15.02 17.26 15.65 15.99 16.94C14.5 18.45 14.03 19.03 13.51 20.01C13 20.96 12.75 21.98 12.75 23.15C12.75 24.16 12.94 25.12 13.31 26.09C13.47 26.5 13.54 26.76 13.49 26.71C13.21 26.48 12.63 25.84 12.42 25.53C11.94 24.81 11.7 24.08 11.54 22.97L11.48 22.51L11.39 22.71C11.34 22.82 11.21 23.18 11.1 23.5C10.17 26.26 10.2 29.11 11.19 31.62C11.49 32.34 12.13 33.5 12.56 34.06C13.67 35.49 15.09 36.66 16.65 37.44C17.31 37.75 18 38.04 18.12 38.04C18.16 38.04 18.22 38.06 18.24 38.09C18.3 38.14 18.57 38.21 18.57 38.17C18.57 38.16 18.44 38.05 18.28 37.93C17.83 37.6 16.93 36.71 16.61 36.26C16.36 35.91 15.81 35.02 15.81 34.96C15.81 34.95 15.76 34.82 15.69 34.66C15.62 34.51 15.56 34.36 15.56 34.32C15.56 34.28 15.54 34.23 15.52 34.21C15.49 34.18 15.42 33.98 15.36 33.76C15.13 32.89 15.1 32.63 15.1 31.58C15.09 30.51 15.14 30.14 15.35 29.34C15.52 28.7 15.93 27.72 15.99 27.78C16.01 27.8 16 27.98 15.97 28.19C15.79 29.49 16.03 30.81 16.68 31.95C16.98 32.47 17.52 33.17 17.4 32.85C17.28 32.57 17.1 31.81 16.96 31.05C16.81 30.24 16.81 30.15 16.83 29.12C16.85 27.81 16.98 27.11 17.38 26.06C17.81 24.94 18.34 24.13 19.27 23.2C19.8 22.67 20.08 22.43 20.57 22.11C21.28 21.64 22.01 21.27 22.7 21.04C23.19 20.87 23.3 20.87 23.18 21.04C22.25 22.31 21.86 23.41 21.95 24.54C22.05 25.83 22.54 26.68 24.17 28.46C25.18 29.55 25.23 29.61 25.62 30.18C25.95 30.66 26.18 31.14 26.35 31.68C26.45 32 26.47 32.15 26.47 32.83C26.47 33.49 26.45 33.67 26.35 34.01C26.29 34.23 26.21 34.45 26.19 34.51C25.82 35.35 25.76 35.48 25.3 36.19C25.07 36.54 24.34 37.44 24.01 37.78C23.87 37.93 23.75 38.07 23.74 38.1C23.7 38.22 25.32 37.19 25.99 36.67C27.12 35.8 28.41 34.5 29.21 33.45C29.87 32.58 30.74 31.06 31.03 30.27C31.33 29.43 31.45 29.03 31.55 28.59C31.61 28.32 31.68 27.99 31.71 27.87C31.81 27.41 31.85 26.25 31.8 25.42C31.77 24.96 31.74 24.58 31.73 24.56C31.72 24.54 31.68 24.37 31.65 24.18C31.47 23.02 31.02 21.71 30.37 20.45C30.09 19.91 29.49 18.95 29.33 18.76C29.3 18.72 29.16 18.55 29.02 18.36C28.89 18.18 28.68 17.92 28.56 17.79L28.34 17.56L28.38 17.87C28.45 18.35 28.42 19.18 28.33 19.62C28.15 20.43 27.54 21.45 26.9 21.99C26.49 22.34 25.82 22.75 25.76 22.69C25.75 22.68 25.8 22.56 25.88 22.42C26.67 21.08 27.33 18.95 27.49 17.26C27.61 15.97 27.49 14.43 27.19 13.33C26.84 12.04 26.39 10.99 25.76 10.02C25.15 9.07 24.8 8.63 24.03 7.86C23.35 7.17 23.27 7.11 22.53 6.55C20.99 5.4 19.16 4.56 17.24 4.12C16.84 4.03 16.84 4.03 16.94 4.19Z" fill="#007BFB" fill-opacity="1.000000" fill-rule="nonzero"/>
</svg>
