<svg height="100%" stroke-miterlimit="10" style="fill-rule:nonzero;clip-rule:evenodd;stroke-linecap:round;stroke-linejoin:round;" version="1.1" viewBox="0 0 180 46" width="100%" xml:space="preserve" xmlns="http://www.w3.org/2000/svg" xmlns:vectornator="http://vectornator.io" xmlns:xlink="http://www.w3.org/1999/xlink">
    <defs/>
    <g id="Слой-1" vectornator:layerName="Слой 1">
        <g opacity="0" vectornator:layerName="g">
            <g opacity="1" vectornator:layerName="g">
                <path d="M0 0C15.3345 0 30.6688 0 46.0033 0C46.0033 15.3334 46.0033 30.6666 46.0033 46C30.6688 46 15.3345 46 0 46C0 30.6666 0 15.3334 0 0Z" fill="#000000" fill-rule="evenodd" opacity="1" stroke="none" vectornator:layerName="path"/>
                <path d="M8.17636 8.49824C11.4977 11.7744 14.8072 15.0687 18.1048 18.381C18.1497 25.0594 18.1647 31.7378 18.1497 38.4162C14.8253 38.4162 11.5008 38.4162 8.17636 38.4162C8.17636 28.4435 8.17636 18.4709 8.17636 8.49824Z" fill="#377dff" fill-rule="evenodd" opacity="1" stroke="none" vectornator:layerName="path"/>
            </g>
            <path d="M37.7371 8.49824C37.8268 18.4558 37.8568 28.4285 37.8269 38.4162C34.5025 38.4162 31.178 38.4162 27.8535 38.4162C27.8385 31.7378 27.8535 25.0594 27.8985 18.381C31.1961 15.0986 34.4756 11.8044 37.7371 8.49824Z" fill="#377dff" fill-rule="evenodd" opacity="1" stroke="none" vectornator:layerName="path"/>
        </g>
        <g opacity="1" vectornator:layerName="g">
            <path d="M67.9892 18L63.5292 18L63.5292 3.58004L67.9892 3.58004L67.9892 18Z" fill="#000000" fill-rule="nonzero" opacity="1" stroke="none" vectornator:layerName="path"/>
            <path d="M87.3492 16.14C87.3492 17.4467 86.7558 18.1 85.5692 18.1C84.7158 18.1 83.9025 17.78 83.1292 17.14L74.6892 10.08L74.6892 18L70.2092 18L70.2092 5.44004C70.2092 4.90671 70.3792 4.46671 70.7192 4.12004C71.0592 3.77337 71.5425 3.60004 72.1692 3.60004C72.9825 3.60004 73.7358 3.88671 74.4292 4.46004L82.8692 11.52L82.8692 3.58004L87.3492 3.58004L87.3492 16.14Z" fill="#000000" fill-rule="nonzero" opacity="1" stroke="none" vectornator:layerName="path"/>
            <path d="M112.129 3.58004L102.409 16.6C101.609 17.68 100.796 18.22 99.9692 18.22C99.1425 18.22 98.3292 17.6734 97.5292 16.58L88.0492 3.58004L93.6092 3.58004L100.049 12.5L106.529 3.58004L112.129 3.58004Z" fill="#000000" fill-rule="nonzero" opacity="1" stroke="none" vectornator:layerName="path"/>
            <path d="M128.109 14.28L125.229 18L112.449 18L112.449 3.58004L128.109 3.58004L125.229 7.32004L116.929 7.32004L116.929 8.84004L127.409 8.84004L124.529 12.56L116.929 12.56L116.929 14.28L128.109 14.28Z" fill="#000000" fill-rule="nonzero" opacity="1" stroke="none" vectornator:layerName="path"/>
            <path d="M147.369 3.58004L144.489 7.32004L134.289 7.32004C133.743 7.32004 133.469 7.51337 133.469 7.90004C133.469 8.28671 133.743 8.48004 134.289 8.48004L141.629 8.48004C143.376 8.48004 144.836 8.90671 146.009 9.76004C147.223 10.6667 147.829 11.84 147.829 13.28C147.829 14.7067 147.216 15.86 145.989 16.74C144.843 17.58 143.389 18 141.629 18L128.429 18L131.309 14.28L141.629 14.28C142.096 14.28 142.516 14.2 142.889 14.04C143.369 13.84 143.609 13.5667 143.609 13.22C143.609 12.86 143.369 12.5867 142.889 12.4C142.529 12.2667 142.109 12.2 141.629 12.2L134.289 12.2C132.663 12.2 131.303 11.8267 130.209 11.08C129.036 10.28 128.449 9.22004 128.449 7.90004C128.449 6.56671 129.036 5.50004 130.209 4.70004C131.303 3.95337 132.663 3.58004 134.289 3.58004L147.369 3.58004Z" fill="#000000" fill-rule="nonzero" opacity="1" stroke="none" vectornator:layerName="path"/>
            <path d="M165.389 3.58004L162.489 7.32004L158.169 7.32004L158.169 18L153.689 18L153.689 7.32004L147.749 7.32004L150.629 3.58004L165.389 3.58004Z" fill="#000000" fill-rule="nonzero" opacity="1" stroke="none" vectornator:layerName="path"/>
            <path d="M99.7492 28L96.8692 31.74L86.6692 31.74C86.1225 31.74 85.8492 31.9333 85.8492 32.32C85.8492 32.7066 86.1225 32.9 86.6692 32.9L94.0092 32.9C95.7558 32.9 97.2158 33.3266 98.3892 34.18C99.6025 35.0866 100.209 36.26 100.209 37.7C100.209 39.1266 99.5958 40.28 98.3692 41.16C97.2225 42 95.7692 42.42 94.0092 42.42L80.8092 42.42L83.6892 38.7L94.0092 38.7C94.4758 38.7 94.8958 38.62 95.2692 38.46C95.7492 38.26 95.9892 37.9866 95.9892 37.64C95.9892 37.28 95.7492 37.0066 95.2692 36.82C94.9092 36.6866 94.4892 36.62 94.0092 36.62L86.6692 36.62C85.0425 36.62 83.6825 36.2466 82.5892 35.5C81.4158 34.7 80.8292 33.64 80.8292 32.32C80.8292 30.9866 81.4158 29.92 82.5892 29.12C83.6825 28.3733 85.0425 28 86.6692 28L99.7492 28Z" fill="#000000" fill-rule="nonzero" opacity="1" stroke="none" vectornator:layerName="path"/>
            <path d="M117.769 28L114.869 31.74L110.549 31.74L110.549 42.42L106.069 42.42L106.069 31.74L100.129 31.74L103.009 28L117.769 28Z" fill="#000000" fill-rule="nonzero" opacity="1" stroke="none" vectornator:layerName="path"/>
            <path d="M133.749 38.7L130.869 42.42L118.089 42.42L118.089 28L133.749 28L130.869 31.74L122.569 31.74L122.569 33.26L133.049 33.26L130.169 36.98L122.569 36.98L122.569 38.7L133.749 38.7Z" fill="#000000" fill-rule="nonzero" opacity="1" stroke="none" vectornator:layerName="path"/>
            <path d="M149.749 38.7L146.869 42.42L134.089 42.42L134.089 28L149.749 28L146.869 31.74L138.569 31.74L138.569 33.26L149.049 33.26L146.169 36.98L138.569 36.98L138.569 38.7L149.749 38.7Z" fill="#000000" fill-rule="nonzero" opacity="1" stroke="none" vectornator:layerName="path"/>
            <path d="M165.389 38.7L162.489 42.42L149.749 42.42L149.749 28L154.209 28L154.209 38.7L165.389 38.7Z" fill="#000000" fill-rule="nonzero" opacity="1" stroke="none" vectornator:layerName="path"/>
        </g>
        <g opacity="0" vectornator:layerName="g">
            <path d="M6.87451 22.8642C6.87451 12.3002 15.4384 3.73637 26.0024 3.73637C36.5664 3.73637 45.1303 12.3002 45.1303 22.8642C45.1303 33.4283 36.5664 41.9921 26.0024 41.9921C15.4384 41.9921 6.87451 33.4283 6.87451 22.8642Z" fill="#ef3924" fill-rule="nonzero" opacity="1" stroke="none" vectornator:layerName="path"/>
            <path d="M24.1551 0.992533C17.4037 1.50911 11.2192 5.13949 7.42379 10.8146C3.91538 16.0665 2.85353 22.8179 4.56828 28.9307C5.85972 33.5296 8.51434 37.5044 12.2165 40.3886C15.5383 42.9715 19.0898 44.4279 23.4376 44.9804C24.5282 45.1167 27.3191 45.0952 28.5316 44.9373C35.7135 44.0118 41.7904 39.872 45.2773 33.5225C47.8243 28.8804 48.5705 23.2125 47.3364 17.9176C46.0809 12.5509 42.7518 7.75824 38.1098 4.64444C34.0346 1.91089 29.0913 0.619451 24.1551 0.992533ZM23.9614 5.62019C23.9757 5.69911 23.9183 5.82108 23.8322 5.9C23.7533 5.97175 23.6888 6.07219 23.6888 6.12959C23.6888 6.17981 23.6672 6.22286 23.6385 6.22286C23.6027 6.22286 23.4663 6.41658 23.3372 6.65334C23.2009 6.89011 23.0574 7.08382 23.0287 7.08382C23 7.08382 22.9713 7.13404 22.9713 7.19144C22.9713 7.24884 22.9426 7.29906 22.8995 7.29906C22.8637 7.29906 22.8278 7.34211 22.8278 7.39233C22.8278 7.44973 22.7632 7.55017 22.6843 7.62192C22.6054 7.69367 22.5408 7.79411 22.5408 7.85151C22.5408 7.90173 22.5121 7.94478 22.4834 7.94478C22.4475 7.94478 22.3758 8.03088 22.3184 8.1385C22.2682 8.25329 22.1534 8.41113 22.0745 8.49723C21.9023 8.6766 21.852 8.74834 21.5722 9.1573C21.4574 9.33667 21.2924 9.54473 21.2135 9.63083C21.1346 9.71692 21.0198 9.86042 20.9624 9.94651C20.905 10.0398 20.7687 10.212 20.661 10.3411C20.3669 10.6783 20.288 10.7788 20.209 10.9079C19.9866 11.2595 19.5346 11.8765 19.3337 12.0989C19.2046 12.2424 19.097 12.4002 19.097 12.4433C19.097 12.4935 19.0539 12.5366 19.0037 12.5366C18.9463 12.5366 18.8674 12.6227 18.8172 12.7231C18.7311 12.9168 18.1786 13.6702 17.9347 13.9356C17.8055 14.0791 17.3464 14.732 16.6863 15.7293C16.4997 16.0019 16.1912 16.4683 16.0047 16.7553C15.811 17.0423 15.6531 17.3077 15.6531 17.3364C15.6531 17.3723 15.6244 17.4153 15.5957 17.4297C15.567 17.4369 15.4307 17.6664 15.3016 17.9319C15.1724 18.2045 15.0361 18.4198 15.0002 18.4198C14.9644 18.4198 14.9357 18.4987 14.9357 18.592C14.9357 18.6853 14.9141 18.7785 14.8854 18.7929C14.8496 18.8 14.7491 18.9722 14.6487 19.1731C14.5482 19.3668 14.4478 19.5462 14.4191 19.5749C14.3904 19.5964 14.3186 19.7543 14.2612 19.9336C14.2038 20.1058 14.0388 20.5722 13.8953 20.9668C13.5725 21.8421 13.472 22.208 13.3285 23.069C13.099 24.3819 13.2281 27.0294 13.5797 28.3136C13.6586 28.615 13.7734 29.0383 13.8308 29.2535C13.8882 29.4688 14.0173 29.8132 14.1106 30.0069C14.211 30.2078 14.2899 30.4158 14.2899 30.4732C14.2899 30.5378 14.333 30.6454 14.3904 30.7243C14.4406 30.8033 14.5913 31.0615 14.7204 31.2983C15.0792 31.944 15.524 32.6256 15.5957 32.6256C15.6244 32.6256 15.6531 32.6687 15.6531 32.7189C15.6531 32.7763 15.7177 32.8911 15.7966 32.9844C15.8755 33.0776 15.9401 33.1924 15.9401 33.2498C15.9401 33.3718 15.6818 33.3718 15.6029 33.2498C15.5742 33.1996 15.4164 33.0633 15.2585 32.9485C14.4837 32.3745 12.4963 30.3441 12.4963 30.1217C12.4963 30.0858 12.403 29.9495 12.281 29.8203C12.1662 29.684 12.0156 29.4759 11.9582 29.3468C11.9008 29.2248 11.8219 29.11 11.786 29.0957C11.7573 29.0813 11.5923 28.8302 11.4273 28.5361C11.2622 28.2419 11.0972 27.9477 11.0613 27.8903C11.0039 27.7899 10.8389 27.424 10.595 26.85C10.5519 26.728 10.4372 26.4698 10.3582 26.276C10.2721 26.0752 10.1717 25.7738 10.1286 25.5945C10.0856 25.4151 10.021 25.207 9.98515 25.1281C9.8847 24.92 9.65511 23.8797 9.51162 22.9757C9.3466 21.9712 9.3466 19.7328 9.51162 18.635C9.63359 17.8028 9.92058 16.6046 9.9995 16.5687C10.0784 16.5329 10.2147 15.9876 10.1645 15.9087C10.143 15.8656 10.1573 15.8369 10.1932 15.8369C10.2363 15.8369 10.2721 15.7652 10.2721 15.6719C10.2721 15.5786 10.3367 15.3706 10.4156 15.2055C10.4945 15.0477 10.5591 14.8827 10.5591 14.854C10.5591 14.7679 11.1403 13.5841 11.1977 13.541C11.2264 13.5195 11.3412 13.3186 11.456 13.089C11.5636 12.8666 11.6784 12.6801 11.7071 12.6801C11.7286 12.6801 11.8075 12.5724 11.8793 12.4433C12.0586 12.0989 12.1662 11.9339 12.2667 11.8191C12.3169 11.7617 12.5609 11.446 12.8191 11.1303C13.0703 10.8075 13.4075 10.42 13.5653 10.2694C13.9886 9.86042 13.9814 9.86759 14.2828 9.53756C14.4406 9.37254 14.5985 9.23622 14.6343 9.23622C14.6774 9.23622 14.7204 9.2147 14.7348 9.17882C14.8209 8.98511 16.6863 7.65779 16.8728 7.65779C16.9302 7.65779 17.045 7.57887 17.1168 7.47843C17.1885 7.37798 17.3105 7.29906 17.3822 7.29906C17.454 7.29906 17.5257 7.27036 17.5544 7.22731C17.6118 7.13404 18.6521 6.65334 18.8961 6.60312C19.0109 6.5816 19.097 6.53855 19.097 6.50985C19.097 6.47398 19.2261 6.43093 19.384 6.40223C19.5418 6.37353 19.6709 6.32331 19.6709 6.28743C19.6709 6.25156 19.7499 6.22286 19.8503 6.22286C19.9579 6.22286 20.1301 6.17264 20.2377 6.11524C20.6467 5.90718 21.9094 5.64171 23.1507 5.51257C23.8466 5.43365 23.9399 5.448 23.9614 5.62019ZM27.2474 5.58432C27.9864 5.71346 29.8446 6.19416 29.9594 6.28743C30.0025 6.32331 30.1675 6.38788 30.3253 6.4381C30.6697 6.53855 31.545 6.91163 31.7961 7.0623C31.8966 7.11969 32.0831 7.21297 32.2194 7.27036C32.3557 7.33493 32.5136 7.42821 32.571 7.4856C32.6284 7.543 32.8221 7.67214 33.0086 7.76541C33.188 7.85869 33.4535 8.03805 33.5898 8.15285C33.7261 8.27482 33.8768 8.37526 33.927 8.37526C33.97 8.37526 34.0561 8.43266 34.1064 8.49723C34.1566 8.56898 34.2857 8.66942 34.3933 8.72682C34.5584 8.81292 36.6031 10.7859 36.6031 10.8577C36.6031 10.872 36.6749 10.9581 36.7682 11.0514C36.9834 11.2882 37.2417 11.6541 38.0883 12.9383C38.2174 13.1321 38.3251 13.333 38.3251 13.3832C38.3251 13.4334 38.3825 13.5338 38.4542 13.6128C38.5188 13.6845 38.6694 13.9643 38.7771 14.237C38.8847 14.5024 39.0569 14.8827 39.143 15.0836C39.3152 15.4495 39.6309 16.3822 39.7959 17.0207C40.047 17.975 40.212 19.2879 40.2479 20.5865C40.2766 21.7991 40.255 22.0502 40.0829 23.1694C39.9752 23.851 39.8533 24.4393 39.8246 24.4752C39.7887 24.5183 39.76 24.6115 39.76 24.6904C39.76 24.999 39.2147 26.5128 38.7484 27.5029C38.6766 27.6608 38.6121 27.8258 38.6121 27.876C38.6121 27.919 38.569 27.9836 38.526 28.0123C38.4757 28.041 38.3251 28.2778 38.1887 28.5361C38.0524 28.7943 37.8587 29.1172 37.7511 29.2535C37.6435 29.3898 37.5359 29.5764 37.5072 29.6697C37.4785 29.7558 37.3924 29.8634 37.3134 29.8992C37.2417 29.9423 37.1771 30.0212 37.1771 30.0786C37.1771 30.136 37.1125 30.2221 37.0336 30.2723C36.9547 30.3226 36.8901 30.4015 36.8901 30.4445C36.8901 30.5593 34.996 32.4678 34.4077 32.9341C34.1279 33.1565 33.8409 33.3431 33.7763 33.3431C33.6185 33.3431 33.6328 33.1063 33.805 32.9485C33.8839 32.8767 33.9629 32.7619 33.9844 32.6902C34.0059 32.6184 34.0848 32.5395 34.1638 32.518C34.2355 32.4965 34.3144 32.4032 34.336 32.3099C34.3575 32.2238 34.4579 32.0301 34.5584 31.8795C34.6588 31.736 34.7377 31.5709 34.7377 31.5135C34.7377 31.4633 34.7664 31.4059 34.8023 31.3916C34.8884 31.3629 35.4552 30.2652 35.4552 30.1288C35.4552 30.0714 35.5198 29.9064 35.5987 29.7629C35.7207 29.5333 35.8211 29.2248 36.0435 28.3567C36.0794 28.1989 36.144 28.0051 36.1727 27.9262C36.4884 27.1801 36.4884 22.5811 36.1727 22.2654C36.1296 22.2224 36.1009 22.1363 36.1009 22.0645C36.1009 21.9928 36.022 21.6986 35.9216 21.4044C35.8211 21.1103 35.7422 20.8233 35.7422 20.7659C35.7422 20.6726 35.5987 20.3067 35.2758 19.6036C35.2256 19.4816 35.1108 19.2234 35.0247 19.0296C34.9386 18.8287 34.8382 18.6063 34.7951 18.5274C34.4651 17.9319 34.2355 17.4512 34.2355 17.3723C34.2355 17.3149 34.2068 17.2718 34.1781 17.2718C34.1494 17.2718 34.0346 17.0925 33.9198 16.8772C33.8122 16.662 33.6902 16.4826 33.6544 16.4826C33.6185 16.4826 33.5898 16.4468 33.5898 16.4037C33.5898 16.3391 33.3674 15.9517 32.8149 15.062C32.7288 14.9186 32.6356 14.7464 32.6069 14.689C32.5853 14.6316 32.4992 14.5024 32.4275 14.4092C32.3557 14.3159 32.2983 14.1939 32.2983 14.1365C32.2983 14.0791 32.2266 13.9571 32.1405 13.8639C31.8822 13.5912 31.7889 13.4764 31.6957 13.3043C31.5378 13.0029 30.7271 11.7832 30.6123 11.6684C30.5549 11.6039 30.5047 11.5178 30.5047 11.4747C30.5047 11.4388 30.4832 11.3886 30.4545 11.3743C30.3755 11.3456 30.0312 10.8218 29.9307 10.5922C29.8805 10.4846 29.7657 10.3626 29.6724 10.3196C29.5146 10.2478 29.4859 10.2694 29.3209 10.5277C29.2204 10.6855 29.1415 10.8362 29.1415 10.8649C29.1415 10.9223 28.7756 11.4891 28.6464 11.6541C28.6034 11.6971 28.5532 11.8191 28.5245 11.9195C28.503 12.02 28.4527 12.1061 28.4169 12.1061C28.381 12.1061 28.3523 12.1563 28.3523 12.2137C28.3523 12.2711 28.2877 12.3859 28.2088 12.4648C28.1299 12.5437 28.0007 12.7518 27.9146 12.924C27.8357 13.1034 27.7209 13.2827 27.6635 13.333C27.6061 13.376 27.5631 13.4549 27.5631 13.5051C27.5631 13.5625 27.4841 13.6989 27.3837 13.8137C27.2833 13.9356 27.2043 14.0576 27.2043 14.0935C27.2043 14.1293 27.1469 14.2226 27.0824 14.3015C27.0106 14.3805 26.9102 14.5239 26.8528 14.6244C26.5299 15.1768 26.0062 15.9876 25.6761 16.4611C24.7434 17.7956 24.5712 18.0467 24.3345 18.4341C24.1982 18.6637 24.0618 18.8503 24.026 18.8503C23.9973 18.8503 23.9901 18.879 24.0116 18.922C24.0331 18.9579 24.0044 19.0655 23.947 19.1588C23.5883 19.7041 23 21.4116 22.7847 22.5093C22.67 23.1407 22.6484 24.8411 22.7632 25.5227C22.835 25.9962 23.1722 27.1083 23.2583 27.1729C23.287 27.1944 23.3802 27.3666 23.4807 27.5603C23.574 27.754 23.6888 27.9262 23.739 27.9406C23.7892 27.9621 23.8322 28.0123 23.8322 28.0554C23.8322 28.1056 23.9112 28.2204 24.0044 28.3208C24.1049 28.4213 24.2556 28.5791 24.3488 28.6796C24.6071 28.9522 25.0591 29.3253 25.1237 29.3253C25.1596 29.3253 25.1954 29.354 25.2098 29.3827C25.2241 29.4185 25.3174 29.4688 25.425 29.4903C25.59 29.5333 25.6116 29.519 25.5757 29.3755C25.5542 29.2894 25.4968 29.1818 25.4465 29.1459C25.3102 29.0311 24.9802 28.1415 24.93 27.7325C24.8654 27.2159 24.8869 26.4267 24.9802 25.9891C25.1309 25.2788 25.2887 24.8052 25.425 24.6617C25.4968 24.5828 25.547 24.4896 25.5255 24.4609C25.4896 24.4035 25.5255 24.3245 25.9057 23.6501C26.1999 23.1264 27.3048 21.5623 27.7066 21.0959C27.7424 21.0457 27.7783 20.974 27.7783 20.9309C27.7783 20.895 27.7998 20.8592 27.8357 20.8592C27.8644 20.8592 27.9792 20.7157 28.1012 20.5363C28.216 20.3641 28.3379 20.2422 28.381 20.2637C28.4169 20.2852 28.424 20.278 28.4025 20.235C28.381 20.1991 28.5532 19.8834 28.7899 19.5319C29.0195 19.1803 29.2132 18.8718 29.2132 18.8359C29.2132 18.8072 29.2635 18.7785 29.3209 18.7785C29.3783 18.7785 29.4285 18.7283 29.4285 18.6709C29.4285 18.4844 29.6294 18.5561 29.7729 18.7929C30.0383 19.2305 31.0787 21.304 31.0787 21.3973C31.0787 21.4547 31.1576 21.6484 31.2508 21.8421C31.3441 22.0286 31.4374 22.2869 31.4589 22.4089C31.4804 22.5309 31.5307 22.7102 31.5809 22.8035C31.7602 23.1335 31.9396 24.1882 31.9396 24.8913C31.9396 25.6303 31.832 26.6133 31.7172 26.85C31.6813 26.9289 31.6096 27.2016 31.5522 27.4527C31.4948 27.7038 31.4087 27.9477 31.3728 27.9836C31.3298 28.0267 31.2939 28.1199 31.2939 28.1917C31.2939 28.2634 31.2293 28.4213 31.1504 28.5504C31.0715 28.6796 31.0069 28.8302 31.0069 28.8733C31.0069 28.9952 30.5908 29.6625 30.3827 29.8705C30.2966 29.9638 30.2177 30.0714 30.2177 30.1073C30.2177 30.2078 29.3998 31.0472 29.2993 31.0472C29.2563 31.0472 29.1774 31.1046 29.1271 31.1763C29.0052 31.3485 27.7783 32.0516 27.6061 32.0516C27.5487 32.0516 27.3694 32.1162 27.1972 32.1951C27.025 32.2741 26.781 32.3386 26.6591 32.3386C26.5443 32.3386 26.4008 32.3817 26.3577 32.4319C26.2286 32.5539 23.8466 32.5969 23.5237 32.4821C23.3946 32.4319 23.0861 32.353 22.8278 32.2956C22.5695 32.2454 22.2897 32.1664 22.2036 32.1234C22.1103 32.0875 21.9668 32.0229 21.8807 31.9871C21.4216 31.8149 21.0341 31.5996 21.0341 31.5351C21.0341 31.4992 20.9911 31.4777 20.948 31.4777C20.8978 31.4777 20.7687 31.4059 20.6539 31.3127C20.5463 31.2266 20.331 31.0544 20.1803 30.9396C20.0297 30.8176 19.8431 30.6382 19.7714 30.5234C19.6925 30.4158 19.5777 30.3082 19.5131 30.2867C19.4414 30.2652 19.384 30.2149 19.384 30.1719C19.384 30.136 19.3122 30.0069 19.2261 29.8992C19.018 29.6481 18.6808 29.0957 18.4799 28.6652C18.2862 28.2563 18.0136 27.3881 18.0782 27.3881C18.1069 27.3881 18.0925 27.3594 18.0566 27.3307C17.8199 27.1657 17.6262 24.3317 17.8127 23.729C17.8486 23.5927 17.9131 23.3344 17.949 23.1551C18.0853 22.4304 18.6808 21.1246 19.6064 19.496C19.8288 19.1014 21.1704 17.0494 21.2494 16.9849C21.2709 16.9633 21.4072 16.7696 21.5579 16.5544C21.7014 16.3391 21.9166 16.0306 22.0386 15.8728C22.1605 15.7149 22.2753 15.5284 22.2969 15.4567C22.3256 15.3921 22.3686 15.3347 22.4045 15.3347C22.4475 15.3347 22.4978 15.2773 22.5193 15.2055C22.5623 15.0907 22.6628 14.9616 22.9856 14.6172C23.0502 14.5455 23.122 14.4235 23.1507 14.3374C23.1722 14.2513 23.2224 14.1867 23.2583 14.1867C23.2941 14.1867 23.3659 14.1006 23.4161 13.9858C23.5668 13.6989 23.7175 13.4406 23.7677 13.3975C23.7892 13.376 23.9973 12.9742 24.2269 12.5007C24.4493 12.0272 24.6645 11.5895 24.6932 11.5321C24.7219 11.4675 24.7721 11.3097 24.8008 11.1734C24.8295 11.0371 24.8941 10.8577 24.9443 10.7788C24.9945 10.6999 25.0878 10.4057 25.1596 10.1331C25.425 9.03533 25.5039 8.38961 25.5326 6.95468L25.5613 5.5054L26.1927 5.5054C26.5371 5.5054 27.0106 5.54127 27.2474 5.58432Z" fill="#ffffff" fill-rule="nonzero" opacity="1" stroke="none" vectornator:layerName="path"/>
        </g>
        <path d="M8 23C8 11.3314 17.4593 1.87214 29.1279 1.87214C40.7965 1.87214 50.2558 11.3314 50.2558 23C50.2558 34.6686 40.7965 44.1279 29.1279 44.1279C17.4593 44.1279 8 34.6686 8 23Z" fill="#000000" fill-rule="nonzero" opacity="1" stroke="none" vectornator:layerName="path"/>
        <path d="M24.9449 6.06557C24.9951 6.14578 25.1454 6.36136 25.2808 6.55687C26.835 8.77781 27.6271 11.0739 27.4968 12.974C27.4266 14.0368 26.9753 15.3203 26.3788 16.1324C26.2785 16.2678 26.1381 16.4734 26.0629 16.5836C25.8523 16.8945 25.2658 17.5262 23.9974 18.8146C22.5034 20.3287 22.0321 20.9102 21.5108 21.8879C21.0045 22.8404 20.7587 23.8581 20.7587 25.0312C20.7587 26.0339 20.9443 27.0015 21.3152 27.9641C21.4756 28.3752 21.5458 28.6358 21.4958 28.5908C21.21 28.3601 20.6384 27.7184 20.4228 27.4026C19.9466 26.6907 19.7009 25.9587 19.5455 24.8457L19.4853 24.3895L19.3951 24.5901C19.345 24.7003 19.2146 25.0563 19.1044 25.3771C18.1719 28.1345 18.2019 30.9871 19.1996 33.4938C19.4904 34.2207 20.1371 35.3789 20.5632 35.9354C21.6712 37.3692 23.09 38.5373 24.6591 39.3144C25.311 39.6302 26.0078 39.921 26.1231 39.921C26.1682 39.921 26.2234 39.941 26.2484 39.9661C26.3086 40.0162 26.5743 40.0864 26.5743 40.0513C26.5743 40.0363 26.444 39.931 26.2885 39.8107C25.8323 39.4798 24.9349 38.5824 24.6141 38.1362C24.3684 37.7903 23.8169 36.8979 23.8169 36.8377C23.8169 36.8227 23.7618 36.6923 23.6916 36.5419C23.6214 36.3916 23.5663 36.2362 23.5663 36.201C23.5663 36.161 23.5462 36.1108 23.5211 36.0858C23.4961 36.0556 23.4259 35.8551 23.3657 35.6345C23.1301 34.7672 23.1 34.5115 23.1 33.4537C23.095 32.3908 23.1401 32.0149 23.3557 31.2128C23.5261 30.5811 23.9372 29.5934 23.9974 29.6586C24.0124 29.6736 24.0024 29.8591 23.9724 30.0697C23.7918 31.3682 24.0376 32.6867 24.6843 33.8247C24.98 34.3511 25.5265 35.043 25.4012 34.7271C25.2858 34.4464 25.1004 33.6844 24.965 32.9273C24.8196 32.1151 24.8146 32.0249 24.8347 30.9972C24.8597 29.6836 24.985 28.9868 25.3861 27.939C25.8123 26.816 26.3437 26.0088 27.2711 25.0764C27.8076 24.5449 28.0883 24.3043 28.5746 23.9884C29.2865 23.5172 30.0135 23.1512 30.7003 22.9156C31.1916 22.7501 31.307 22.7501 31.1816 22.9156C30.2542 24.1839 29.8681 25.2919 29.9583 26.42C30.0586 27.7034 30.5449 28.5606 32.1743 30.3354C33.1869 31.4283 33.2371 31.4885 33.6281 32.06C33.954 32.5363 34.1846 33.0125 34.3551 33.554C34.4553 33.8799 34.4703 34.0303 34.4703 34.707C34.4703 35.3689 34.4503 35.5443 34.3551 35.8852C34.2899 36.1058 34.2197 36.3314 34.1946 36.3866C33.8286 37.2288 33.7635 37.3542 33.3023 38.0661C33.0717 38.417 32.3497 39.3144 32.0189 39.6603C31.8785 39.8057 31.7531 39.9511 31.7481 39.9762C31.703 40.0965 33.3273 39.0637 33.9941 38.5474C35.1222 37.675 36.4156 36.3815 37.2127 35.3287C37.8745 34.4614 38.7468 32.9373 39.0326 32.1502C39.3384 31.308 39.4587 30.9119 39.5539 30.4707C39.6141 30.195 39.6843 29.8692 39.7144 29.7438C39.8146 29.2825 39.8598 28.1295 39.8046 27.2922C39.7796 26.8361 39.7445 26.455 39.7344 26.435C39.7244 26.4149 39.6893 26.2444 39.6593 26.054C39.4787 24.9008 39.0226 23.5824 38.3708 22.324C38.0901 21.7875 37.4984 20.83 37.333 20.6345C37.303 20.5993 37.1676 20.4239 37.0273 20.2384C36.8919 20.053 36.6813 19.7972 36.561 19.6719L36.3454 19.4413L36.3855 19.7421C36.4507 20.2284 36.4256 21.0606 36.3304 21.4968C36.1549 22.309 35.5433 23.3267 34.9015 23.8681C34.4955 24.2141 33.8236 24.6251 33.7685 24.57C33.7534 24.5549 33.8036 24.4347 33.8838 24.2993C34.6709 22.9557 35.3377 20.825 35.4981 19.1405C35.6185 17.852 35.4981 16.3029 35.1974 15.205C34.8464 13.9216 34.3901 12.8637 33.7685 11.8961C33.1569 10.9436 32.806 10.5074 32.0389 9.74038C31.352 9.04853 31.2768 8.98336 30.5349 8.43189C28.9958 7.27881 27.1609 6.43655 25.2458 6.00039C24.8447 5.91015 24.8447 5.91015 24.9449 6.06557Z" fill="#007bfb" fill-rule="nonzero" opacity="1" stroke="none" vectornator:layerName="path"/>
    </g>
</svg>