<svg width="434" height="538" viewBox="0 0 434 538" fill="none" xmlns="http://www.w3.org/2000/svg">
<path fill-rule="evenodd" clip-rule="evenodd" d="M257.5 233.538L216.5 265.038L174 233.538L172 150.038H260L257.5 233.538ZM191.5 218.538V180.038C192.167 177.872 194 173.538 200 173.538C206.584 173.538 207.904 177.089 208.731 179.314C208.783 179.454 208.833 179.59 208.883 179.719V218.219L191.5 218.538ZM226 180.038V218.538H243V180.038C242.5 177.872 241.5 173.538 234.5 173.538C227.917 173.538 226.788 177.371 226.122 179.629C226.08 179.772 226.04 179.909 226 180.038Z" fill="#899268"/>
<path d="M111 264.038V536.538H0L27 188.538H101.5L216 277.038L330.5 188.538H406L434 536.538H322.5V264.038L216 357.538L111 264.038Z" fill="#CDD5AE"/>
<path d="M249.5 138.038H183L211.5 77.5385V6.0385C211.5 6.0385 211.826 0.555963 217 0.0385005C222 -0.461542 223.833 4.0385 224 6.0385V14.5385C224 14.5385 232 12.5385 243.5 16.5385C254.112 20.2298 250.5 26.0385 266 26.0385C281.5 26.0385 285 20.5385 287 18.5385V45.0385C287 45.0385 279.5 52.0385 266 52.0385C250.5 52.0385 253.5 47.0385 243.5 42.5385C233.5 38.0385 224 40.0385 224 40.0385V77.5385L249.5 138.038Z" fill="#899268"/>
<path d="M140.5 309.538V536.038H161V328.038L140.5 309.538Z" fill="#899268"/>
<path d="M272.5 328.038V536.038H292.5V309.538L272.5 328.038Z" fill="#899268"/>
<path d="M179.5 537.038L178.5 441.038L254 442.038L255 537.038H228.5V468.538H205.5V537.038H179.5Z" fill="#899268"/>
<path d="M254.5 416.538H179V405.038H254.5V416.538Z" fill="#899268"/>
<path d="M254.5 382.538H179V371.038H254.5V382.538Z" fill="#899268"/>
<path d="M254.5 416.538H179V405.038H254.5V416.538Z" stroke="black"/>
<path d="M254.5 382.538H179V371.038H254.5V382.538Z" stroke="black"/>
</svg>