<?xml version="1.0" encoding="utf-8"?>
<!-- Generator: Adobe Illustrator 26.4.1, SVG Export Plug-In . SVG Version: 6.00 Build 0)  -->
<svg version="1.1" id="Слой_1" xmlns="http://www.w3.org/2000/svg" xmlns:xlink="http://www.w3.org/1999/xlink" x="0px" y="0px"
	 viewBox="0 0 146 36" style="enable-background:new 0 0 146 36;" xml:space="preserve">
<style type="text/css">
	.st0{fill-rule:evenodd;clip-rule:evenodd;}
</style>
<path id="market" class="st0" d="M13.5,27.3c-0.3-0.5-0.6-1-0.9-1.6L10,21.1c-0.3-0.5-0.7-1-1.1-1.2c0,0,0,0,0,0
	c-0.4-0.3-0.9-0.4-1.6-0.4c-0.3,0-0.6,0-0.8,0.1c-0.3,0.1-0.6,0.2-0.9,0.4c0,0,0,0,0,0c-0.5,0.4-0.8,0.9-1.1,1.6L0.3,35.7h4.9
	l1.5-5.6c0.2-0.9,0.4-1.7,0.6-2.4c0.2-0.7,0.3-1.4,0.5-2c0.1,0.3,0.3,0.6,0.4,0.8c0.1,0.3,0.3,0.6,0.5,0.9c0.2,0.3,0.4,0.7,0.6,1.2
	c0.2,0.4,0.5,0.9,0.8,1.5l2.2,4.1c0.2,0.4,0.4,0.7,0.6,1c0.2,0.2,0.4,0.4,0.7,0.5c0.1,0,0.2,0.1,0.3,0.1c0.1,0.1,0.3,0.1,0.4,0.1
	c0.3,0,0.5,0.1,0.8,0.1c0.3,0,0.6,0,0.8-0.1c0.2,0,0.3-0.1,0.4-0.1c0.1,0,0.2-0.1,0.3-0.1c0.2-0.1,0.4-0.3,0.7-0.5
	c0.2-0.2,0.4-0.6,0.6-1l2.2-4c0.5-1,1-1.9,1.3-2.6c0.3-0.7,0.6-1.3,0.9-1.9c0.1,0.7,0.3,1.3,0.5,2c0.2,0.7,0.4,1.5,0.6,2.4l1.5,5.6
	h4.9l-4.1-14.1c-0.2-0.8-0.6-1.3-1.1-1.7c-0.2-0.2-0.5-0.3-0.8-0.4c-0.3-0.1-0.6-0.1-0.9-0.1c-0.6,0-1.2,0.1-1.6,0.5c0,0,0,0,0,0
	c0,0,0,0,0,0c-0.4,0.3-0.8,0.7-1.1,1.2l-2.6,4.6c-0.4,0.6-0.7,1.2-0.9,1.6c-0.3,0.5-0.5,0.9-0.7,1.3c-0.2,0.4-0.4,0.7-0.5,1
	s-0.3,0.6-0.4,0.9c-0.1-0.3-0.3-0.6-0.4-0.9c-0.2-0.3-0.3-0.6-0.5-1C14,28.2,13.8,27.8,13.5,27.3z M41.5,31.6l-3,4.1h18.7l-10-14.5
	c-0.2-0.3-0.5-0.6-0.8-0.9c-0.2-0.2-0.3-0.3-0.5-0.4c-0.5-0.3-1.1-0.5-1.9-0.5c-0.8,0-1.4,0.2-2,0.5c-0.5,0.4-0.9,0.8-1.3,1.2
	L30.5,35.7h5.9l7.5-10.6l2.9,4.2c0.3,0.4,0.6,0.8,0.8,1.2c0.3,0.4,0.6,0.8,0.8,1.1c-0.4,0-0.8-0.1-1.4-0.1H41.5z M75.1,35.7h6.6
	l-2.9-3.1c-0.6-0.6-1-1-1.3-1.3c-0.3-0.3-0.6-0.6-0.9-0.8c0.7-0.1,1.3-0.3,1.8-0.7c0.5-0.3,0.9-0.6,1.2-1c0,0,0.1-0.1,0.1-0.1
	c0.1-0.1,0.2-0.3,0.3-0.5c0.2-0.3,0.4-0.7,0.5-1.1c0-0.1,0-0.1,0.1-0.2c0.2-0.5,0.2-1.1,0.2-1.6c0-1.2-0.3-2.1-0.8-2.8
	c-0.2-0.3-0.5-0.6-0.8-0.9c-0.3-0.3-0.7-0.6-1.2-0.8c-0.8-0.4-1.7-0.7-2.7-0.9s-1.9-0.2-2.8-0.2H62.1l-3.2,4.2h14
	c0.9,0,1.5,0.2,2,0.5c0.2,0.1,0.4,0.3,0.5,0.5c0.2,0.3,0.2,0.6,0.2,0.9c0,0.2,0,0.4-0.1,0.6c-0.1,0.3-0.3,0.5-0.7,0.7
	c-0.5,0.3-1.2,0.5-1.9,0.5h-14v8.2h5v-4.2h7.6L75.1,35.7z M96.2,35.7h7.5l-6.7-5.3c-1-0.8-1.9-1.5-2.5-2c-0.7-0.5-1.2-0.9-1.7-1.2
	c0.3-0.2,0.5-0.3,0.8-0.5c0.3-0.2,0.6-0.4,0.9-0.6c0.3-0.2,0.7-0.5,1.1-0.8c0.4-0.3,0.9-0.7,1.4-1.1l6.1-4.6H96l-4.6,3.9
	c-0.7,0.6-1.3,1.1-1.8,1.5c-0.5,0.4-0.8,0.8-1.2,1.1c0-0.4,0-0.9,0.1-1.3c0-0.5,0-1,0-1.5v-3.7h-5v16h5v-4.6c0-0.4,0-0.8,0-1.2
	c0-0.4,0-0.8,0-1.1c0.3,0.3,0.6,0.6,1.1,1c0.4,0.4,1.1,1,1.9,1.7L96.2,35.7z M120.8,35.7l3.2-4.1h-13.7v-2.2h9.9l2.9-3.6h-12.7v-1.9
	h10.4l3.2-4.2h-18.6v16H120.8z M142.5,23.9l3.2-4.2h-18.2l-3.2,4.2h7.5v11.9h5V23.9H142.5z"/>
<g>
	<path d="M21.9,16.3H17V0.5h4.9V16.3z"/>
	<path d="M43.2,14.3c0,1.4-0.7,2.2-2,2.2c-0.9,0-1.8-0.4-2.7-1.1l-9.3-7.8v8.7h-4.9V2.5c0-0.6,0.2-1.1,0.6-1.5s0.9-0.6,1.6-0.6
		c0.9,0,1.7,0.3,2.5,0.9l9.3,7.8V0.5h4.9V14.3z"/>
	<path d="M70.4,0.5L59.8,14.8c-0.9,1.2-1.8,1.8-2.7,1.8c-0.9,0-1.8-0.6-2.7-1.8L44,0.5h6.1l7.1,9.8l7.1-9.8H70.4z"/>
	<path d="M88,12.2l-3.2,4.1H70.8V0.5H88l-3.2,4.1h-9.1v1.7h11.5l-3.2,4.1h-8.4v1.9H88z"/>
	<path d="M109.2,0.5L106,4.6H94.8c-0.6,0-0.9,0.2-0.9,0.6c0,0.4,0.3,0.6,0.9,0.6h8.1c1.9,0,3.5,0.5,4.8,1.4c1.3,1,2,2.3,2,3.9
		c0,1.6-0.7,2.8-2,3.8c-1.3,0.9-2.9,1.4-4.8,1.4H88.4l3.2-4.1h11.3c0.5,0,1-0.1,1.4-0.3c0.5-0.2,0.8-0.5,0.8-0.9
		c0-0.4-0.3-0.7-0.8-0.9c-0.4-0.1-0.9-0.2-1.4-0.2h-8.1c-1.8,0-3.3-0.4-4.5-1.2c-1.3-0.9-1.9-2-1.9-3.5c0-1.5,0.6-2.6,1.9-3.5
		c1.2-0.8,2.7-1.2,4.5-1.2H109.2z"/>
	<path d="M129,0.5l-3.2,4.1h-4.8v11.7h-4.9V4.6h-6.5l3.2-4.1H129z"/>
</g>
</svg>
