<svg width="145.347595" height="16.582031" viewBox="0 0 145.348 16.582" fill="none" xmlns="http://www.w3.org/2000/svg" xmlns:xlink="http://www.w3.org/1999/xlink">
	<desc>
			Created with Pixso.
	</desc>
	<defs/>
	<path id="market" d="M13.16 7.88Q12.77 7.17 12.24 6.24L9.67 1.7Q9.24 0.9 8.57 0.45Q8.55 0.44 8.53 0.43Q7.89 0 6.96 0Q6.52 0 6.12 0.11Q5.66 0.25 5.25 0.53Q5.23 0.55 5.21 0.56Q4.47 1.1 4.15 2.2L0 16.31L4.87 16.31L6.38 10.72Q6.74 9.35 7 8.31Q7.27 7.27 7.46 6.31Q7.65 6.72 7.86 7.15Q8.06 7.58 8.34 8.09Q8.61 8.61 8.95 9.26Q9.29 9.9 9.72 10.72L11.88 14.78Q12.19 15.38 12.51 15.73Q12.84 16.07 13.17 16.27Q13.31 16.34 13.45 16.4Q13.66 16.48 13.89 16.52Q14.28 16.58 14.73 16.58Q15.19 16.58 15.57 16.52Q15.8 16.48 16.01 16.4Q16.16 16.34 16.29 16.27Q16.63 16.07 16.95 15.73Q17.28 15.38 17.59 14.78L19.75 10.75Q20.57 9.18 21.07 8.16Q21.58 7.14 21.98 6.31Q22.17 7.29 22.44 8.32Q22.7 9.35 23.09 10.72L24.6 16.31L29.54 16.31L25.48 2.2Q25.15 1.07 24.39 0.53Q24.04 0.28 23.64 0.14Q23.19 0 22.7 0Q21.74 0 21.08 0.45Q21.07 0.45 21.05 0.46Q21.04 0.47 21.03 0.48Q20.39 0.94 19.96 1.7L17.4 6.26Q16.87 7.2 16.47 7.89Q16.08 8.58 15.77 9.15Q15.48 9.72 15.25 10.16Q15.02 10.6 14.83 11.03Q14.61 10.6 14.39 10.15Q14.16 9.69 13.86 9.14Q13.56 8.58 13.16 7.88ZM41.16 12.18L38.16 16.31L56.83 16.31L46.8 1.79Q46.47 1.31 46.04 0.93Q45.8 0.7 45.52 0.51Q44.76 0 43.63 0Q42.45 0 41.68 0.55Q40.92 1.1 40.41 1.79L30.12 16.31L36 16.31L43.54 5.66L46.41 9.9Q46.82 10.48 47.26 11.15Q47.71 11.8 48.05 12.24Q47.47 12.18 46.69 12.18L41.16 12.18ZM74.74 16.31L81.38 16.31L78.43 13.2Q77.59 12.35 77.09 11.87Q76.58 11.39 76.17 11.08Q77.16 10.89 77.94 10.42Q78.65 10 79.16 9.4Q79.21 9.34 79.25 9.28Q79.43 9.07 79.58 8.83Q79.89 8.34 80.09 7.77Q80.11 7.69 80.14 7.61Q80.37 6.84 80.37 6Q80.37 4.27 79.59 3.16Q79.23 2.65 78.77 2.23Q78.25 1.76 77.61 1.41Q76.41 0.76 74.95 0.51Q73.49 0.26 72.12 0.26L61.8 0.26L58.56 4.43L72.53 4.43Q73.82 4.43 74.54 4.9Q74.83 5.09 75.01 5.36Q75.26 5.75 75.26 6.31Q75.26 6.63 75.14 6.91Q74.95 7.33 74.47 7.62Q73.68 8.1 72.53 8.1L58.56 8.1L58.56 16.31L63.53 16.31L63.53 12.07L71.16 12.07L74.74 16.31ZM95.9 16.31L103.41 16.31L96.76 11.01Q95.2 9.74 94.22 9.02Q93.24 8.3 92.54 7.82Q92.92 7.58 93.32 7.31Q93.72 7.05 94.2 6.72Q94.68 6.38 95.29 5.92Q95.9 5.47 96.69 4.86L102.84 0.26L95.64 0.26L91 4.17Q89.9 5.08 89.22 5.72Q88.54 6.35 88.06 6.79Q88.1 6.16 88.13 5.44Q88.15 4.72 88.15 3.98L88.15 0.26L83.16 0.26L83.16 16.31L88.15 16.31L88.15 11.71Q88.15 11.13 88.13 10.54Q88.1 9.96 88.08 9.4Q88.48 9.81 89.15 10.41Q89.81 11.01 91.06 12.09L95.9 16.31ZM120.5 16.31L123.7 12.18L110.04 12.18L110.04 10L119.9 10L122.76 6.35L110.04 6.35L110.04 4.43L120.43 4.43L123.64 0.26L105.05 0.26L105.05 16.31L120.5 16.31ZM142.13 4.43L145.34 0.26L127.1 0.26L123.89 4.43L131.42 4.43L131.42 16.31L136.39 16.31L136.39 4.43L142.13 4.43Z" fill="#000000" fill-opacity="1.000000" fill-rule="evenodd"/>
</svg>
