<svg width="43" height="43" viewBox="0 0 43 43" fill="none" xmlns="http://www.w3.org/2000/svg">
<path d="M0 21.689C0 10.0204 9.4593 0.561172 21.1279 0.561172C32.7965 0.561172 42.2558 10.0204 42.2558 21.689C42.2558 33.3576 32.7965 42.8169 21.1279 42.8169C9.4593 42.8169 0 33.3576 0 21.689Z" fill="black"/>
<path d="M27.5302 34.8131C27.9704 34.3355 28.8884 33.2348 29.0393 32.6534C29.2279 31.9265 29.1808 31.0543 28.8507 30.1406C28.5866 29.4096 28.0175 28.3408 27.766 27.8978C27.6481 27.6555 27.4029 27.0089 27.3652 26.361C27.3274 25.7131 27.5695 25.0527 27.6953 24.8035C27.601 24.852 27.3463 25.0112 27.0822 25.2604C26.8181 25.5096 26.5006 25.8626 26.3748 26.008C25.9268 24.9489 24.8469 22.4527 24.1112 20.9409C23.3943 19.4676 23.2163 19.0054 23.215 18.9508C23.1205 20.2537 22.8613 23.0932 22.5786 24.0559C22.2249 25.2604 22.2013 25.4681 21.3525 27.1294C20.6734 28.4585 20.5193 28.7077 20.5272 28.6661C20.4014 28.9084 20.0792 29.6006 19.7962 30.4313C19.5133 31.262 19.4583 31.9127 19.4661 32.1342C18.9081 31.7119 17.5185 30.3566 16.4244 28.3131C15.3303 26.2697 14.994 25.0389 14.9625 24.6789C14.5381 24.9835 13.5242 25.9665 12.864 27.4617C12.2037 28.9569 12.4631 30.7151 12.6753 31.4074L13.2412 32.8818C13.3355 33.0341 13.5336 33.4051 13.5713 33.6709C13.6091 33.9367 13.9958 34.6677 14.1844 35C13.2098 34.3701 11.0012 32.8278 9.96372 31.6981C8.92623 30.5684 8.46251 29.8014 8.36033 29.5591C8.25816 29.3514 8.04437 28.8323 8.00665 28.4169C7.96892 28.0016 8.10096 27.2332 8.1717 26.901C8.26602 26.631 8.57255 25.8626 9.04413 24.9489C9.51571 24.0351 9.72793 23.4468 9.77509 23.2668C9.79081 23.1491 9.81281 22.8182 9.77509 22.4361C9.73736 22.054 9.58645 21.4462 9.51571 21.1901C9.54715 21.1763 9.75622 21.3189 10.341 22C10.9258 22.6812 11.1191 22.9484 11.1427 22.9968C11.1348 22.9414 11.3266 22.3406 12.1566 20.3802C12.9866 18.4198 15.0175 16.5037 15.9293 15.7907C15.8664 15.8669 15.8019 16.6006 16.0472 18.9265C16.2924 21.2524 17.1711 23.1629 17.5798 23.8275C17.6427 23.9382 17.8392 24.2677 18.1221 24.6997C18.4051 25.1316 18.633 25.4058 18.7116 25.4888C18.5858 25.1773 18.3485 24.1847 18.4051 22.7061C18.4617 21.2275 18.7902 19.4457 18.9474 18.7396C18.9081 18.7673 18.9474 18.507 19.419 17.2444C20.0085 15.6661 20.2207 14.9808 20.2207 13.8802C20.2207 12.7796 20.2207 12.3642 20.032 11.6581C19.8434 10.9521 19.9141 10.7859 19.419 10.0383C19.0229 9.44026 18.7509 9.09691 18.6644 9C18.971 9.10383 19.7538 9.4278 20.4329 9.89297C21.2817 10.4744 21.7297 10.7236 23.0738 11.8658C24.4178 13.008 25.4788 14.0048 26.3748 15.2093C27.2709 16.4137 28.0018 16.9329 29.2279 19.6741C30.2088 21.8671 30.4698 22.9691 30.4776 23.246C30.5641 23.1076 30.8926 22.6728 31.5151 22.0415C32.1376 21.4102 32.4661 21.1832 32.5526 21.1486C32.4976 21.2178 32.3545 21.4684 32.2225 21.9169C32.0574 22.4776 32.2696 23.3498 32.3404 23.5783C32.4111 23.8067 32.364 23.869 32.977 25.0112C33.5901 26.1534 33.4722 25.9872 33.8259 26.9425C34.1796 27.8978 33.8966 28.6246 33.8259 29.0607C33.7551 29.4968 33.4722 29.9952 32.4819 31.0958C31.4915 32.1965 30.9492 32.6326 29.7231 33.5048C28.7422 34.2026 27.8525 34.6677 27.5302 34.8131Z" fill="#007BFB"/>
</svg>
