<!DOCTYPE svg PUBLIC "-//W3C//DTD SVG 1.1//EN" "http://www.w3.org/Graphics/SVG/1.1/DTD/svg11.dtd">
<!-- Uploaded to: SVG Repo, www.svgrepo.com, Transformed by: SVG Repo Mixer Tools -->
<svg width="64px" height="64px" viewBox="0 0 24 24" xmlns="http://www.w3.org/2000/svg" fill="#737373">
<g id="SVGRepo_bgCarrier" stroke-width="0"/>
<g id="SVGRepo_tracerCarrier" stroke-linecap="round" stroke-linejoin="round"/>
<g id="SVGRepo_iconCarrier">
<path d="M22 4H12V2H5v2H2v18H0v1h11v-5h2v5h11v-1h-2zm-8 18v-5h-4v5H3V5h3V3h5v2h10v17zM5 11h4V7H5zm1-3h2v2H6zm4 3h4V7h-4zm1-3h2v2h-2zm4 3h4V7h-4zm1-3h2v2h-2zM5 16h4v-4H5zm1-3h2v2H6zm4 3h4v-4h-4zm1-3h2v2h-2zm4 3h4v-4h-4zm1-3h2v2h-2z"/>
<path fill="none" d="M0 0h24v24H0z"/>
</g>
</svg>