<!-- sprite.svg -->
<svg xmlns="http://www.w3.org/2000/svg" xmlns:xlink="http://www.w3.org/1999/xlink">
  <defs>
    <symbol viewBox="0 0 32 32" id="icon-arrow">
      <path fill="currentColor"
        d="m9.5 31a.5.5 0 0 1 -.354-.854l14.147-14.146-14.147-14.146a.5.5 0 0 1 .707-.707l14.854 14.853-14.853 14.854a.5.5 0 0 1 -.354.146z" />
    </symbol>
    <symbol viewBox="0 0 24 24" id="icon-email">
      <path
        d="M23 4.5C22.5 4 22 4.00002 21.5 4.00001C21 4 12.5 4 12.5 4C8.59476 4 3 4.00001 2.5 4.00001C2 4.00001 1.5 4 1 4.5C0.5 5 0 6.39601 0 7.61601V15.5C0 17.981 2.019 20 4.5 20H19.5C21.981 20 24 17.981 24 15.5V7.61601C24 6.39601 23.5 5 23 4.5ZM2 5.00001C2.136 5.00001 6.57107 5.00001 9.5 5.00001C10.4763 5.00001 11.016 5.00001 12 5.00001C12.984 5.00001 15.183 5.00001 15.183 5.00001H22C22 5.00001 22.5 5 22.136 5.31401C21.772 5.62801 14.475 12.975 14.475 12.975C13.153 14.297 10.848 14.297 9.526 12.975C9.526 12.975 2.228 5.62801 1.864 5.31401C1.5 5 1.864 5.00001 2 5.00001ZM23 15.5C23 17.43 21.43 19 19.5 19H4.5C2.57 19 1 17.43 1 15.5V7.61601C1 7.11701 1.109 6.62501 1.312 6.17501L8.819 13.682C9.669 14.532 10.798 15 12.001 15C13.204 15 14.333 14.532 15.183 13.682L22.69 6.17501C22.893 6.62501 23.002 7.11601 23.002 7.61601V15.5H23Z"
        fill="currentColor" />
    </symbol>
    <symbol viewBox="0 0 24 24" id="icon-web">
      <path
        d="M23.109 15.134L14.297 11.135C13.387 10.827 12.399 11.056 11.722 11.733C11.029 12.425 10.819 13.423 11.178 14.445L15.122 23.12C15.36 23.643 15.885 23.988 16.469 23.999H16.488C17.059 23.999 17.573 23.682 17.83 23.17L19.606 19.617L23.16 17.841C23.674 17.583 23.999 17.046 23.989 16.472C23.979 15.897 23.634 15.371 23.11 15.134H23.109ZM22.712 16.946L18.861 18.871L16.936 22.722C16.85 22.893 16.691 23 16.5 23C16.309 22.997 16.112 22.881 16.033 22.706L12.106 14.073C11.891 13.456 12.008 12.861 12.43 12.44C12.71 12.159 13.08 12.007 13.478 12.007C13.655 12.007 13.838 12.037 14.02 12.1L22.695 16.044C22.869 16.123 22.984 16.298 22.987 16.489C22.99 16.68 22.883 16.86 22.712 16.946ZM12 0C11.995 0 11.99 0 11.984 0C11.984 0 11.984 0 11.983 0C5.374 0.009 0 5.389 0 12C0 18.611 5.383 24 12 24C12.174 24 12.348 23.996 12.521 23.989C12.797 23.977 13.011 23.744 13 23.468C12.988 23.193 12.75 22.972 12.48 22.989C12.388 22.993 12.295 22.996 12.203 22.997C11.635 22.427 9.466 20.127 8.114 16.999H9.501C9.777 16.999 10.001 16.775 10.001 16.499C10.001 16.223 9.777 15.999 9.501 15.999H7.723C7.286 14.754 7.001 13.405 7.001 11.999C7.001 10.593 7.286 9.244 7.724 7.999H16.281C16.463 8.517 16.619 9.054 16.738 9.604C16.789 9.838 16.996 9.999 17.226 9.999C17.261 9.999 17.296 9.996 17.332 9.988C17.602 9.93 17.773 9.664 17.715 9.394C17.612 8.917 17.484 8.452 17.338 7.999H22.248C22.734 9.239 23.001 10.589 23.001 11.999C23.001 12.159 22.998 12.318 22.991 12.477C22.979 12.753 23.193 12.986 23.469 12.998C23.751 13.024 23.979 12.797 23.99 12.52C23.998 12.347 24.001 12.173 24.001 11.998C24 5.383 18.617 0 12 0ZM1 12C1 10.59 1.267 9.24 1.753 8H6.658C6.256 9.246 6 10.591 6 12C6 13.409 6.256 14.754 6.658 16H1.753C1.267 14.76 1 13.41 1 12ZM7.019 17C8.085 19.669 9.742 21.785 10.762 22.93C7.025 22.51 3.848 20.21 2.203 17H7.019ZM7.019 7H2.203C3.848 3.79 7.025 1.49 10.763 1.07C9.743 2.215 8.085 4.331 7.019 7ZM8.115 7C9.339 4.171 11.232 2.016 12 1.21C12.77 2.017 14.665 4.173 15.888 7H8.115ZM16.975 7C15.907 4.328 14.253 2.214 13.235 1.07C16.973 1.49 20.15 3.79 21.796 7H16.975Z"
        fill="currentColor" />
    </symbol>
    <symbol viewBox="0 0 24 24" id="icon-phone">
      <path
        d="M22.27 1.77L21.15 0.790001C20.13 -0.229999 18.4 -0.279999 17.3 0.840001L15.43 3.29C14.38 4.34 14.38 6.05 15.43 7.09L16.92 8.62C15.3 12.42 12.31 15.42 8.62998 16.92L7.09998 15.43C6.58998 14.92 5.91998 14.64 5.19998 14.64C4.47998 14.64 3.80998 14.92 3.34998 15.39L0.809976 17.35C-0.240023 18.4 -0.240023 20.11 0.789976 21.13L1.80998 22.3C2.90998 23.4 4.38998 24.01 5.99998 24.01C13.75 24.01 24.02 13.73 24.02 5.99C24.02 4.39 23.41 2.9 22.29 1.78L22.27 1.77ZM5.97998 23C4.63998 23 3.40998 22.5 2.51998 21.61L1.49998 20.43C0.839976 19.77 0.839977 18.7 1.44998 18.08L3.98998 16.12C4.30998 15.8 4.72998 15.62 5.18998 15.62C5.64998 15.62 6.06998 15.8 6.38998 16.12L8.15998 17.85C8.29998 17.99 8.49998 18.03 8.68998 17.96C12.86 16.37 16.25 12.98 17.98 8.68C18.05 8.5 18.01 8.29 17.87 8.14L16.14 6.37C15.48 5.71 15.48 4.64 16.18 3.93L18.05 1.48C18.71 0.820001 19.78 0.820001 20.47 1.5L21.59 2.48C22.5 3.39 23 4.62 23 5.96C23 13.12 13.14 22.98 5.97998 22.98V23Z"
        fill="currentColor" />
    </symbol>
    <symbol viewBox="0 0 64 64" id="icon-heart">
      <path fill="currentColor" d="m32 62a30 30 0 1 1 30-30 30.034 30.034 0 0 1 -30 30zm0-58a28 28 0 1 0 28 28 28.032 28.032 0 0 0 -28-28z"/><path fill="currentColor" d="m32 47a1 1 0 0 1 -.641-.232c-.268-.224-.536-.459-.794-.717l-11.571-11.592c-.256-.256-.491-.524-.716-.793a10.217 10.217 0 0 1 13.722-14.866 10.218 10.218 0 0 1 16 8.422 10.286 10.286 0 0 1 -2.268 6.427c-.233.281-.468.55-.726.808l-11.57 11.594c-.257.257-.526.492-.793.716a1 1 0 0 1 -.643.233zm-5.791-28a8.23 8.23 0 0 0 -6.385 13.4c.177.212.371.436.585.65l11.573 11.588.019.019.019-.019 11.572-11.592c.214-.213.408-.436.593-.659a8.268 8.268 0 0 0 1.815-5.162 8.216 8.216 0 0 0 -13.37-6.4 1 1 0 0 1 -1.258 0 8.248 8.248 0 0 0 -5.163-1.825z"/>
    </symbol>
    <symbol viewBox="0 0 32 32" id="icon-search">
      <path fill="currentColor"
        d="m13.2 24.9a11.7 11.7 0 1 1 11.7-11.7 11.714 11.714 0 0 1 -11.7 11.7zm0-22.4a10.7 10.7 0 1 0 10.7 10.7 10.712 10.712 0 0 0 -10.7-10.7z" />
      <path fill="currentColor"
        d="m30 30.5a.5.5 0 0 1 -.354-.146l-8.824-8.824a.5.5 0 0 1 .707-.707l8.824 8.824a.5.5 0 0 1 -.353.853z" />
    </symbol>
    <symbol viewBox="0 0 32 32" id="icon-close">
      <path fill="currentColor"
        d="m3 29.5a.5.5 0 0 1 -.354-.854l26-26a.5.5 0 0 1 .707.707l-26 26a.5.5 0 0 1 -.353.147z" />
      <path fill="currentColor"
        d="m29 29.5a.5.5 0 0 1 -.354-.146l-26-26a.5.5 0 0 1 .707-.707l26 26a.5.5 0 0 1 -.353.853z" />
    </symbol>
    <symbol viewBox="0 0 64 64" id="icon-cart">
      <path fill="currentColor" d="m52.841 46h-29.622a5.987 5.987 0 0 1 -5.919-4.99l-5.138-29.01h-9.162a1 1 0 0 1 0-2h10a1 1 0 0 1 .985.826l5.29 29.841a3.991 3.991 0 0 0 3.944 3.333h29.622a4 4 0 0 0 3.933-3.271l3.148-17a4 4 0 0 0 -3.933-4.729h-33.989a1 1 0 0 1 0-2h33.989a6 6 0 0 1 5.9 7.093l-3.148 17a6 6 0 0 1 -5.9 4.907z"/><path fill="currentColor" d="m27.5 54a3.5 3.5 0 1 1 3.5-3.5 3.5 3.5 0 0 1 -3.5 3.5zm0-5a1.5 1.5 0 1 0 1.5 1.5 1.5 1.5 0 0 0 -1.5-1.5z"/><path fill="currentColor" d="m48.5 54a3.5 3.5 0 1 1 3.5-3.5 3.5 3.5 0 0 1 -3.5 3.5zm0-5a1.5 1.5 0 1 0 1.5 1.5 1.5 1.5 0 0 0 -1.5-1.5z"/>
    </symbol>
    <symbol viewBox="0 0 495 495" id="icon-burger">
      <path fill="currentColor" d="M486.4,238.933H8.533c-4.717,0-8.533,3.821-8.533,8.533S3.817,256,8.533,256H486.4c4.717,0,8.533-3.821,8.533-8.533 S491.117,238.933,486.4,238.933z"/><path fill="currentColor" d="M8.533,85.333H486.4c4.717,0,8.533-3.821,8.533-8.533c0-4.713-3.817-8.533-8.533-8.533H8.533 C3.817,68.267,0,72.087,0,76.8C0,81.513,3.817,85.333,8.533,85.333z"/><path fill="currentColor" d="M486.4,409.6H8.533C3.817,409.6,0,413.421,0,418.133s3.817,8.533,8.533,8.533H486.4c4.717,0,8.533-3.821,8.533-8.533 S491.117,409.6,486.4,409.6z"/>
    </symbol>
    <symbol viewBox="0 0 24 24" id="icon">
    </symbol>
    <symbol viewBox="0 0 24 24" id="icon-org">
      <path fill="currentColor"
        d="M22 4H12V2H5v2H2v18H0v1h11v-5h2v5h11v-1h-2zm-8 18v-5h-4v5H3V5h3V3h5v2h10v17zM5 11h4V7H5zm1-3h2v2H6zm4 3h4V7h-4zm1-3h2v2h-2zm4 3h4V7h-4zm1-3h2v2h-2zM5 16h4v-4H5zm1-3h2v2H6zm4 3h4v-4h-4zm1-3h2v2h-2zm4 3h4v-4h-4zm1-3h2v2h-2z" />
    </symbol>
  </defs>
</svg>