<!-- sprite.svg -->
<svg xmlns="http://www.w3.org/2000/svg" xmlns:xlink="http://www.w3.org/1999/xlink">
  <defs>
    <symbol viewBox="0 0 24 24" id="icon-arrow">
      <path
        d="M6.733 23.888L17.561 13.061C17.844 12.778 18 12.401 18 12C18 11.599 17.844 11.223 17.561 10.939L6.733 0.112L6.026 0.819L16.854 11.646C16.948 11.741 17 11.866 17 12C17 12.134 16.948 12.259 16.854 12.354L6.027 23.181L6.733 23.888Z"
        fill="currentColor"
      />
    </symbol>
    <symbol viewBox="0 0 24 24" id="icon-email">
      <path
        d="M23 4.5C22.5 4 22 4.00002 21.5 4.00001C21 4 12.5 4 12.5 4C8.59476 4 3 4.00001 2.5 4.00001C2 4.00001 1.5 4 1 4.5C0.5 5 0 6.39601 0 7.61601V15.5C0 17.981 2.019 20 4.5 20H19.5C21.981 20 24 17.981 24 15.5V7.61601C24 6.39601 23.5 5 23 4.5ZM2 5.00001C2.136 5.00001 6.57107 5.00001 9.5 5.00001C10.4763 5.00001 11.016 5.00001 12 5.00001C12.984 5.00001 15.183 5.00001 15.183 5.00001H22C22 5.00001 22.5 5 22.136 5.31401C21.772 5.62801 14.475 12.975 14.475 12.975C13.153 14.297 10.848 14.297 9.526 12.975C9.526 12.975 2.228 5.62801 1.864 5.31401C1.5 5 1.864 5.00001 2 5.00001ZM23 15.5C23 17.43 21.43 19 19.5 19H4.5C2.57 19 1 17.43 1 15.5V7.61601C1 7.11701 1.109 6.62501 1.312 6.17501L8.819 13.682C9.669 14.532 10.798 15 12.001 15C13.204 15 14.333 14.532 15.183 13.682L22.69 6.17501C22.893 6.62501 23.002 7.11601 23.002 7.61601V15.5H23Z"
        fill="currentColor" />
    </symbol>
    <symbol viewBox="0 0 24 24" id="icon-web">
      <path
        d="M23.109 15.134L14.297 11.135C13.387 10.827 12.399 11.056 11.722 11.733C11.029 12.425 10.819 13.423 11.178 14.445L15.122 23.12C15.36 23.643 15.885 23.988 16.469 23.999H16.488C17.059 23.999 17.573 23.682 17.83 23.17L19.606 19.617L23.16 17.841C23.674 17.583 23.999 17.046 23.989 16.472C23.979 15.897 23.634 15.371 23.11 15.134H23.109ZM22.712 16.946L18.861 18.871L16.936 22.722C16.85 22.893 16.691 23 16.5 23C16.309 22.997 16.112 22.881 16.033 22.706L12.106 14.073C11.891 13.456 12.008 12.861 12.43 12.44C12.71 12.159 13.08 12.007 13.478 12.007C13.655 12.007 13.838 12.037 14.02 12.1L22.695 16.044C22.869 16.123 22.984 16.298 22.987 16.489C22.99 16.68 22.883 16.86 22.712 16.946ZM12 0C11.995 0 11.99 0 11.984 0C11.984 0 11.984 0 11.983 0C5.374 0.009 0 5.389 0 12C0 18.611 5.383 24 12 24C12.174 24 12.348 23.996 12.521 23.989C12.797 23.977 13.011 23.744 13 23.468C12.988 23.193 12.75 22.972 12.48 22.989C12.388 22.993 12.295 22.996 12.203 22.997C11.635 22.427 9.466 20.127 8.114 16.999H9.501C9.777 16.999 10.001 16.775 10.001 16.499C10.001 16.223 9.777 15.999 9.501 15.999H7.723C7.286 14.754 7.001 13.405 7.001 11.999C7.001 10.593 7.286 9.244 7.724 7.999H16.281C16.463 8.517 16.619 9.054 16.738 9.604C16.789 9.838 16.996 9.999 17.226 9.999C17.261 9.999 17.296 9.996 17.332 9.988C17.602 9.93 17.773 9.664 17.715 9.394C17.612 8.917 17.484 8.452 17.338 7.999H22.248C22.734 9.239 23.001 10.589 23.001 11.999C23.001 12.159 22.998 12.318 22.991 12.477C22.979 12.753 23.193 12.986 23.469 12.998C23.751 13.024 23.979 12.797 23.99 12.52C23.998 12.347 24.001 12.173 24.001 11.998C24 5.383 18.617 0 12 0ZM1 12C1 10.59 1.267 9.24 1.753 8H6.658C6.256 9.246 6 10.591 6 12C6 13.409 6.256 14.754 6.658 16H1.753C1.267 14.76 1 13.41 1 12ZM7.019 17C8.085 19.669 9.742 21.785 10.762 22.93C7.025 22.51 3.848 20.21 2.203 17H7.019ZM7.019 7H2.203C3.848 3.79 7.025 1.49 10.763 1.07C9.743 2.215 8.085 4.331 7.019 7ZM8.115 7C9.339 4.171 11.232 2.016 12 1.21C12.77 2.017 14.665 4.173 15.888 7H8.115ZM16.975 7C15.907 4.328 14.253 2.214 13.235 1.07C16.973 1.49 20.15 3.79 21.796 7H16.975Z"
        fill="currentColor" />
    </symbol>
    <symbol viewBox="0 0 24 24" id="icon-phone">
      <path
        d="M22.27 1.77L21.15 0.790001C20.13 -0.229999 18.4 -0.279999 17.3 0.840001L15.43 3.29C14.38 4.34 14.38 6.05 15.43 7.09L16.92 8.62C15.3 12.42 12.31 15.42 8.62998 16.92L7.09998 15.43C6.58998 14.92 5.91998 14.64 5.19998 14.64C4.47998 14.64 3.80998 14.92 3.34998 15.39L0.809976 17.35C-0.240023 18.4 -0.240023 20.11 0.789976 21.13L1.80998 22.3C2.90998 23.4 4.38998 24.01 5.99998 24.01C13.75 24.01 24.02 13.73 24.02 5.99C24.02 4.39 23.41 2.9 22.29 1.78L22.27 1.77ZM5.97998 23C4.63998 23 3.40998 22.5 2.51998 21.61L1.49998 20.43C0.839976 19.77 0.839977 18.7 1.44998 18.08L3.98998 16.12C4.30998 15.8 4.72998 15.62 5.18998 15.62C5.64998 15.62 6.06998 15.8 6.38998 16.12L8.15998 17.85C8.29998 17.99 8.49998 18.03 8.68998 17.96C12.86 16.37 16.25 12.98 17.98 8.68C18.05 8.5 18.01 8.29 17.87 8.14L16.14 6.37C15.48 5.71 15.48 4.64 16.18 3.93L18.05 1.48C18.71 0.820001 19.78 0.820001 20.47 1.5L21.59 2.48C22.5 3.39 23 4.62 23 5.96C23 13.12 13.14 22.98 5.97998 22.98V23Z"
        fill="currentColor" />
    </symbol>
    <symbol viewBox="0 0 24 24" id="icon-heart">
      <path
        d="M12 22C11.17 22 10.35 21.72 9.66 21.17C6.07 18.28 0 12 0 6.82C0 3.06 2.8 0 6.25 0C8.79 0 11.04 1.8 12 4.3C12.96 1.8 15.21 0 17.75 0C21.2 0 24 3.06 24 6.81C24 13.06 15.96 19.86 14.34 21.16C13.65 21.72 12.82 21.99 12 21.99V22ZM6.25 1C3.4 1 1 3.67 1 6.82C1 11.63 6.83 17.62 10.28 20.4C11.29 21.22 12.7 21.22 13.72 20.4C18 16.95 23 11.32 23 6.82C23 3.67 20.6 1.01 17.75 1.01C14.9 1.01 12.5 3.54 12.5 6.79C12.5 6.79 12.5 7.5 12 7.5C11.5 7.5 11.49 6.79 11.49 6.79C11.39 3.63 9.03 1 6.24 1H6.25Z"
        fill="currentColor" />
    </symbol>
    <symbol viewBox="0 0 24 24" id="icon-search">
      <path
        d="M23.731 23.024L17.41 16.703C19.017 14.928 20.006 12.583 20.006 10.005C20.006 4.492 15.52 0.00600052 10.006 0.00600052C4.49198 0.00600052 0.00598145 4.492 0.00598145 10.006C0.00598145 15.52 4.49198 20.006 10.006 20.006C12.583 20.006 14.928 19.018 16.703 17.411L23.024 23.732C23.024 23.732 23.4153 24.0477 23.731 23.732C23.926 23.537 23.927 23.22 23.732 23.025L23.731 23.024ZM1.00598 10.006C1.00598 5.043 5.04298 1.006 10.006 1.006C14.969 1.006 19.006 5.044 19.006 10.006C19.006 14.968 14.969 19.006 10.006 19.006C5.04298 19.006 1.00598 14.968 1.00598 10.006Z"
        fill="currentColor" />
    </symbol>
    <symbol viewBox="0 0 24 24" id="icon-close">
      <path
        d="M23.8497 0.248422C23.7535 0.151449 23.623 0.0969722 23.487 0.0969722C23.3509 0.0969722 23.2204 0.151449 23.1242 0.248422L12.0481 11.2201L0.875793 0.15145C0.779568 0.0544765 0.649076 0 0.513014 0C0.376952 0 0.246461 0.0544765 0.150236 0.15145C0.0540399 0.248452 0 0.379998 0 0.51716C0 0.654321 0.0540399 0.785867 0.150236 0.882869L11.2785 11.9516L0.24641 23.1171C0.150214 23.2141 0.0961742 23.3457 0.0961742 23.4828C0.0961742 23.62 0.150214 23.7515 0.24641 23.8486C0.342635 23.9455 0.473127 24 0.609189 24C0.745251 24 0.875742 23.9455 0.971967 23.8486L12.0481 12.6829L23.1242 23.8485C23.2204 23.9454 23.3509 23.9999 23.487 23.9999C23.623 23.9999 23.7535 23.9454 23.8498 23.8485C23.946 23.7515 24 23.6199 24 23.4828C24 23.3456 23.946 23.2141 23.8498 23.1171L12.7737 11.9515L23.8497 0.979841C23.9459 0.882839 24 0.751293 24 0.614132C24 0.47697 23.9459 0.345425 23.8497 0.248422Z"
        fill="currentColor" />
    </symbol>
    <symbol viewBox="0 0 24 24" id="icon-cart">
      <path
        d="M23.43 4.92C22.95 4.34 22.25 4 21.5 4H6.49L6.23 2.16C6.06 0.93 5 0 3.75 0H2.49C2.21 0 1.99 0.22 1.99 0.5C1.99 0.78 2.21 1 2.49 1H3.75C4.5 1 5.13 1.56 5.24 2.29L7.02 15.12C7.33 17.33 9.24 19 11.48 19H19.5C19.78 19 20 18.78 20 18.5C20 18.22 19.78 18 19.5 18H11.48C9.75 18 8.26 16.71 8.02 15H18.66C20.8 15 22.65 13.48 23.07 11.38L23.95 6.99C24.1 6.25 23.91 5.5 23.43 4.91V4.92ZM22.97 6.8L22.09 11.19C21.76 12.82 20.32 14 18.66 14H7.88L6.63 5H21.5C21.95 5 22.37 5.2 22.66 5.55C22.95 5.9 23.06 6.35 22.97 6.8ZM9 20.01C7.9 20.01 7 20.91 7 22.01C7 23.11 7.9 24.01 9 24.01C10.1 24.01 11 23.11 11 22.01C11 20.91 10.1 20.01 9 20.01ZM9 23.01C8.45 23.01 8 22.56 8 22.01C8 21.46 8.45 21.01 9 21.01C9.55 21.01 10 21.46 10 22.01C10 22.56 9.55 23.01 9 23.01ZM18 20.01C16.9 20.01 16 20.91 16 22.01C16 23.11 16.9 24.01 18 24.01C19.1 24.01 20 23.11 20 22.01C20 20.91 19.1 20.01 18 20.01ZM18 23.01C17.45 23.01 17 22.56 17 22.01C17 21.46 17.45 21.01 18 21.01C18.55 21.01 19 21.46 19 22.01C19 22.56 18.55 23.01 18 23.01ZM0 5.5C0 5.22 0.22 5 0.5 5H3.04C3.32 5 3.54 5.22 3.54 5.5C3.54 5.78 3.32 6 3.04 6H0.5C0.22 6 0 5.78 0 5.5ZM0 9.5C0 9.22 0.22 9 0.5 9H3.5C3.78 9 4 9.22 4 9.5C4 9.78 3.78 10 3.5 10H0.5C0.22 10 0 9.78 0 9.5ZM5 13.5C5 13.78 4.78 14 4.5 14H0.5C0.22 14 0 13.78 0 13.5C0 13.22 0.22 13 0.5 13H4.5C4.78 13 5 13.22 5 13.5Z"
        fill="currentColor" />
    </symbol>
    <symbol viewBox="0 0 24 24" id="icon-burger">
      <path
        d="M24 20.5C24 20.22 23.78 20 23.5 20H0.5C0.22 20 0 20.22 0 20.5C0 20.78 0.22 21 0.5 21H23.5C23.78 21 24 20.78 24 20.5ZM23.5 3L0.5 3C0.22 3 0 2.78 0 2.5C0 2.22 0.22 2 0.5 2L23.5 2C23.78 2 24 2.22 24 2.5C24 2.78 23.78 3 23.5 3ZM23.5 12H0.5C0.22 12 0 11.78 0 11.5C0 11.22 0.22 11 0.5 11H23.5C23.78 11 24 11.22 24 11.5C24 11.78 23.78 12 23.5 12Z"
        fill="currentColor" />
    </symbol>
    <symbol viewBox="0 0 24 24" id="icon">
    </symbol>
  </defs>
</svg>