<svg width="203" height="169" viewBox="0 0 203 169" fill="none" xmlns="http://www.w3.org/2000/svg">
<path d="M159.929 96.2827L119.001 167.173C118.584 167.896 119.105 168.799 119.94 168.799H201.797C202.631 168.799 203.153 167.896 202.735 167.173L161.807 96.2827C161.39 95.5595 160.346 95.5595 159.929 96.2827Z" fill="#BFB099"/>
<path d="M148.543 85.4639L103.948 162.71C101.773 166.476 97.7553 168.796 93.4067 168.796H78.0618L111.5 110.875C113.773 106.935 112.424 101.898 108.484 99.6244C104.545 97.3506 99.509 98.7002 97.2344 102.639L59.0372 168.796H41.1848L83.8446 94.9146C86.1187 90.9754 84.7691 85.9381 80.8296 83.6644C76.8909 81.3906 71.8544 82.7402 69.5806 86.6789L22.1741 168.796H0L94.8458 4.54138C97.9575 -0.847009 105.735 -0.846573 108.847 4.54181L148.543 73.2925C150.717 77.0584 150.717 81.698 148.543 85.4639Z" fill="#E9E3C3"/>
</svg>
