<svg height="200px" width="200px" version="1.1" id="Layer_1" xmlns="http://www.w3.org/2000/svg" xmlns:xlink="http://www.w3.org/1999/xlink" viewBox="0 0 512 512" xml:space="preserve" fill="#000000"><g id="SVGRepo_bgCarrier" stroke-width="0"></g><g id="SVGRepo_tracerCarrier" stroke-linecap="round" stroke-linejoin="round"></g><g id="SVGRepo_iconCarrier"> <path style="fill:#ADADAD;" d="M414.756,255.999c0,87.679-71.066,158.753-158.747,158.753c-87.69,0-158.766-71.073-158.766-158.753 c0-87.677,71.076-158.75,158.766-158.75C343.69,97.25,414.756,168.322,414.756,255.999z"></path> <path style="fill:#6B6B6B;" d="M421.843,256c0,5.533-4.484,10.017-10.017,10.017H273.444l69.128,118.5 c2.787,4.778,1.174,10.912-3.605,13.699c-1.587,0.926-3.325,1.367-5.039,1.367c-3.446,0-6.8-1.78-8.662-4.971l-69.262-118.732 l-69.258,118.732c-1.861,3.192-5.216,4.972-8.662,4.972c-1.714,0-3.45-0.441-5.038-1.367c-4.778-2.787-6.393-8.921-3.605-13.699 l69.122-118.501H100.179c-5.533,0-10.017-4.484-10.017-10.017c0-5.533,4.484-10.017,10.017-10.017h138.381l-69.128-118.499 c-2.787-4.778-1.174-10.913,3.605-13.7s10.913-1.174,13.7,3.605l69.262,118.732l69.258-118.732c2.787-4.778,8.921-6.393,13.7-3.605 c4.778,2.787,6.393,8.921,3.605,13.699l-69.123,118.5h138.385C417.359,245.984,421.843,250.468,421.843,256z"></path> <path style="fill:#7C7C7C;" d="M256.003,208.551c26.208,0,47.449,21.244,47.449,47.449c0,26.207-21.241,47.45-47.449,47.45 c-26.21,0-47.455-21.244-47.455-47.45C208.549,229.794,229.792,208.551,256.003,208.551L256.003,208.551z"></path> <path style="fill:#6B6B6B;" d="M256.001,230.811c13.913,0,25.189,11.277,25.189,25.189c0,13.913-11.276,25.19-25.189,25.19 c-13.914,0-25.193-11.277-25.193-25.19C230.81,242.088,242.087,230.811,256.001,230.811L256.001,230.811z"></path> <path style="fill:#017cffd9;" d="M256.003,0C114.611,0,0,114.613,0,256s114.611,256,256.003,256C397.389,512,512,397.387,512,256 S397.389,0,256.003,0z M256.003,400.14c-79.608,0-144.146-64.533-144.146-144.14s64.538-144.14,144.146-144.14 c79.603,0,144.14,64.532,144.14,144.14C400.142,335.607,335.605,400.14,256.003,400.14z"></path> <path style="fill:#595959;" d="M256.003,0C114.611,0,0,114.613,0,256s114.611,256,256.003,256C397.389,512,512,397.387,512,256 S397.389,0,256.003,0z M256.012,459.273c-112.282,0-203.29-91.006-203.29-203.274c0-112.265,91.008-203.27,203.29-203.27 c112.269,0,203.265,91.004,203.265,203.27C459.277,368.267,368.282,459.273,256.012,459.273z"></path> <path style="fill:#FFFFFF;" d="M456.961,223.673c-0.697,0.147-1.391,0.217-2.077,0.217c-4.636,0-8.797-3.237-9.791-7.953 c-15.761-74.77-74.258-133.266-149.028-149.027c-5.414-1.141-8.877-6.455-7.736-11.868c1.142-5.414,6.458-8.877,11.868-7.736 C382.73,64.705,447.3,129.273,464.697,211.804C465.838,217.218,462.375,222.531,456.961,223.673z M215.934,445.09 C141.168,429.33,82.671,370.833,66.909,296.065c-1.142-5.414-6.46-8.881-11.868-7.736c-5.414,1.141-8.878,6.455-7.736,11.867 c17.399,82.53,81.968,147.099,164.497,164.498c0.697,0.147,1.391,0.217,2.076,0.217c4.636,0,8.798-3.237,9.793-7.953 C224.811,451.545,221.348,446.231,215.934,445.09z"></path> </g></svg>