<?xml version="1.0" encoding="UTF-8"?>
<svg xmlns="http://www.w3.org/2000/svg" xmlns:xlink="http://www.w3.org/1999/xlink" width="529.47pt" height="93.11pt" viewBox="0 0 529.47 93.11" version="1.1">
<defs>
<clipPath id="clip1">
  <path d="M 328 13 L 529.46875 13 L 529.46875 56 L 328 56 Z M 328 13 "/>
</clipPath>
<clipPath id="clip2">
  <path d="M 0 0 L 94 0 L 94 93.109375 L 0 93.109375 Z M 0 0 "/>
</clipPath>
<clipPath id="clip3">
  <path d="M 515 70 L 529.46875 70 L 529.46875 89 L 515 89 Z M 515 70 "/>
</clipPath>
</defs>
<g id="surface1">
<path style=" stroke:none;fill-rule:evenodd;fill:rgb(13.699341%,12.199402%,12.5%);fill-opacity:1;" d="M 285.960938 22.523438 L 317.429688 22.523438 L 317.429688 13.109375 L 284.269531 13.109375 C 277.851563 13.109375 272.597656 18.519531 272.597656 25.128906 L 272.597656 43.164063 C 272.597656 49.773438 277.855469 55.1875 284.269531 55.1875 L 317.429688 55.1875 L 317.429688 28.425781 L 291.5625 28.425781 L 291.5625 39.601563 L 307.449219 39.574219 L 307.449219 45.78125 L 285.960938 45.78125 C 284.761719 45.78125 283.78125 44.597656 283.78125 43.164063 L 283.78125 25.128906 C 283.78125 23.695313 284.761719 22.523438 285.960938 22.523438 Z M 249.902344 40.035156 L 223.875 13.109375 L 213.195313 13.109375 L 213.195313 55.1875 L 224.25 55.1875 L 224.25 27.859375 L 250.46875 55.1875 L 261.324219 55.1875 L 261.324219 13.109375 L 249.902344 13.109375 Z M 138.355469 13.109375 L 105.199219 13.109375 L 105.199219 22.523438 L 136.667969 22.523438 C 137.863281 22.523438 138.847656 23.695313 138.847656 25.128906 L 138.847656 43.164063 C 138.847656 44.597656 137.863281 45.78125 136.667969 45.78125 L 115.179688 45.78125 L 115.179688 28.425781 L 105.199219 28.425781 L 105.199219 55.1875 L 138.355469 55.1875 C 144.773438 55.1875 150.03125 49.773438 150.03125 43.164063 L 150.03125 25.128906 C 150.03125 18.519531 144.777344 13.109375 138.355469 13.109375 Z M 195.523438 43.164063 C 195.523438 44.597656 194.351563 45.78125 192.914063 45.78125 L 169.1875 45.78125 C 167.75 45.78125 166.574219 44.597656 166.574219 43.164063 L 166.574219 25.128906 C 166.574219 23.695313 167.75 22.523438 169.1875 22.523438 L 192.914063 22.523438 C 194.351563 22.523438 195.523438 23.695313 195.523438 25.128906 Z M 192.914063 13.109375 L 169.1875 13.109375 C 162.574219 13.109375 157.167969 18.519531 157.167969 25.128906 L 157.167969 43.164063 C 157.167969 49.773438 162.574219 55.1875 169.1875 55.1875 L 192.914063 55.1875 C 199.527344 55.1875 204.9375 49.773438 204.9375 43.164063 L 204.9375 25.128906 C 204.9375 18.519531 199.527344 13.109375 192.914063 13.109375 "/>
<g clip-path="url(#clip1)" clip-rule="nonzero">
<path style=" stroke:none;fill-rule:evenodd;fill:rgb(13.699341%,12.199402%,12.5%);fill-opacity:1;" d="M 497.734375 22.523438 L 529.203125 22.523438 L 529.203125 13.109375 L 496.050781 13.109375 C 489.625 13.109375 484.375 18.519531 484.375 25.128906 L 484.375 43.164063 C 484.375 49.773438 489.625 55.1875 496.050781 55.1875 L 529.203125 55.1875 L 529.203125 28.425781 L 503.339844 28.425781 L 503.339844 39.601563 L 519.226563 39.574219 L 519.226563 45.78125 L 497.734375 45.78125 C 496.535156 45.78125 495.554688 44.597656 495.554688 43.164063 L 495.554688 25.128906 C 495.554688 23.695313 496.535156 22.523438 497.734375 22.523438 Z M 462.347656 40.035156 L 436.316406 13.109375 L 425.644531 13.109375 L 425.644531 55.1875 L 436.695313 55.1875 L 436.695313 27.859375 L 462.914063 55.1875 L 473.777344 55.1875 L 473.777344 13.109375 L 462.347656 13.109375 Z M 383.617188 13.109375 L 376.933594 13.109375 L 376.933594 55.1875 L 418.078125 55.1875 L 418.078125 45.78125 L 389.839844 45.78125 L 389.839844 39.628906 L 418.078125 39.628906 L 418.078125 28.425781 L 389.839844 28.425781 L 389.839844 22.523438 L 418.078125 22.523438 L 418.078125 13.109375 Z M 340.011719 28.425781 L 328.835938 28.425781 L 328.835938 55.1875 L 340.011719 55.1875 L 340.011719 39.601563 L 365.804688 39.636719 L 365.804688 28.425781 Z M 329.109375 22.539063 L 342.089844 22.523438 C 342.117188 22.523438 342.15625 22.523438 342.195313 22.523438 L 365.804688 22.523438 L 365.804688 13.109375 L 340.507813 13.109375 C 334.949219 13.109375 330.269531 17.160156 329.109375 22.539063 "/>
</g>
<g clip-path="url(#clip2)" clip-rule="nonzero">
<path style=" stroke:none;fill-rule:nonzero;fill:rgb(92.89856%,10.998535%,14.099121%);fill-opacity:1;" d="M 46.539063 93.109375 L 46.574219 93.109375 C 72.273438 93.101563 93.109375 72.261719 93.109375 46.550781 C 93.109375 20.839844 72.265625 -0.00390625 46.558594 -0.00390625 C 20.847656 -0.00390625 0.0078125 20.832031 0 46.535156 L 0 46.570313 C 0.0078125 72.269531 20.84375 93.101563 46.539063 93.109375 "/>
</g>
<path style=" stroke:none;fill-rule:nonzero;fill:rgb(100%,100%,100%);fill-opacity:1;" d="M 33.09375 8.214844 C 47.75 8.113281 70.113281 16.871094 71.929688 45.882813 C 76.386719 43.242188 80.304688 38.25 83.59375 29.855469 C 77.222656 15.746094 63.039063 5.929688 46.558594 5.929688 C 41.839844 5.929688 37.304688 6.734375 33.09375 8.214844 "/>
<path style=" stroke:none;fill-rule:nonzero;fill:rgb(100%,100%,100%);fill-opacity:1;" d="M 60.015625 84.890625 C 45.355469 84.992188 22.996094 76.234375 21.175781 47.21875 C 16.722656 49.863281 12.804688 54.851563 9.515625 63.253906 C 15.882813 77.363281 30.070313 87.171875 46.558594 87.171875 C 51.269531 87.171875 55.804688 86.367188 60.015625 84.890625 "/>
<path style=" stroke:none;fill-rule:nonzero;fill:rgb(100%,100%,100%);fill-opacity:1;" d="M 46.273438 18.222656 C 20.394531 50.984375 44.316406 79.890625 62.296875 84.015625 C 76.910156 77.863281 87.179688 63.40625 87.179688 46.550781 C 87.179688 40.910156 86.027344 35.539063 83.945313 30.652344 C 84.605469 55.136719 72.234375 69.886719 46.84375 74.882813 C 72.714844 42.117188 48.792969 13.210938 30.8125 9.089844 C 16.199219 15.242188 5.9375 29.695313 5.9375 46.550781 C 5.9375 52.195313 7.082031 57.570313 9.164063 62.453125 C 8.503906 37.964844 20.871094 23.222656 46.273438 18.222656 "/>
<path style=" stroke:none;fill-rule:nonzero;fill:rgb(13.699341%,12.199402%,12.5%);fill-opacity:1;" d="M 106.648438 86.210938 L 110.414063 86.210938 C 111.578125 86.210938 112.488281 86.101563 113.152344 85.882813 C 113.816406 85.667969 114.34375 85.363281 114.734375 84.96875 C 115.289063 84.417969 115.722656 83.671875 116.027344 82.738281 C 116.339844 81.804688 116.492188 80.667969 116.492188 79.335938 C 116.492188 77.492188 116.1875 76.074219 115.585938 75.082031 C 114.976563 74.089844 114.242188 73.425781 113.375 73.089844 C 112.75 72.851563 111.742188 72.730469 110.355469 72.730469 L 106.648438 72.730469 Z M 104.3125 88.292969 L 104.3125 70.648438 L 110.390625 70.648438 C 111.761719 70.648438 112.808594 70.730469 113.53125 70.902344 C 114.542969 71.132813 115.40625 71.554688 116.121094 72.164063 C 117.050781 72.949219 117.746094 73.953125 118.207031 75.179688 C 118.667969 76.402344 118.898438 77.800781 118.898438 79.375 C 118.898438 80.714844 118.742188 81.898438 118.429688 82.9375 C 118.117188 83.972656 117.71875 84.828125 117.226563 85.503906 C 116.734375 86.183594 116.203125 86.714844 115.621094 87.105469 C 115.039063 87.496094 114.335938 87.789063 113.515625 87.992188 C 112.691406 88.191406 111.746094 88.292969 110.679688 88.292969 L 104.3125 88.292969 "/>
<path style=" stroke:none;fill-rule:nonzero;fill:rgb(13.699341%,12.199402%,12.5%);fill-opacity:1;" d="M 123.8125 79.730469 C 123.8125 81.863281 124.382813 83.535156 125.523438 84.761719 C 126.667969 85.984375 128.101563 86.59375 129.828125 86.59375 C 131.585938 86.59375 133.03125 85.976563 134.167969 84.742188 C 135.300781 83.507813 135.867188 81.753906 135.867188 79.480469 C 135.867188 78.042969 135.628906 76.789063 135.144531 75.722656 C 134.65625 74.648438 133.945313 73.820313 133.011719 73.230469 C 132.074219 72.636719 131.027344 72.34375 129.863281 72.34375 C 128.210938 72.34375 126.789063 72.910156 125.597656 74.046875 C 124.40625 75.183594 123.8125 77.078125 123.8125 79.730469 Z M 121.402344 79.699219 C 121.402344 76.769531 122.1875 74.476563 123.761719 72.820313 C 125.335938 71.164063 127.363281 70.335938 129.851563 70.335938 C 131.480469 70.335938 132.949219 70.722656 134.257813 71.5 C 135.5625 72.28125 136.5625 73.363281 137.246094 74.757813 C 137.933594 76.148438 138.277344 77.730469 138.277344 79.492188 C 138.277344 81.285156 137.914063 82.882813 137.195313 84.296875 C 136.472656 85.707031 135.449219 86.777344 134.125 87.503906 C 132.800781 88.230469 131.371094 88.59375 129.839844 88.59375 C 128.179688 88.59375 126.695313 88.191406 125.386719 87.386719 C 124.078125 86.585938 123.089844 85.492188 122.414063 84.101563 C 121.738281 82.714844 121.402344 81.246094 121.402344 79.699219 "/>
<path style=" stroke:none;fill-rule:nonzero;fill:rgb(13.699341%,12.199402%,12.5%);fill-opacity:1;" d="M 141.261719 88.292969 L 141.261719 70.648438 L 143.65625 70.648438 L 152.925781 84.5 L 152.925781 70.648438 L 155.164063 70.648438 L 155.164063 88.292969 L 152.769531 88.292969 L 143.503906 74.425781 L 143.503906 88.292969 L 141.261719 88.292969 "/>
<path style=" stroke:none;fill-rule:nonzero;fill:rgb(13.699341%,12.199402%,12.5%);fill-opacity:1;" d="M 167.34375 81.371094 L 167.34375 79.300781 L 174.816406 79.289063 L 174.816406 85.835938 C 173.667969 86.75 172.484375 87.4375 171.265625 87.902344 C 170.046875 88.359375 168.796875 88.59375 167.511719 88.59375 C 165.777344 88.59375 164.203125 88.21875 162.785156 87.480469 C 161.371094 86.738281 160.304688 85.664063 159.578125 84.257813 C 158.859375 82.855469 158.496094 81.285156 158.496094 79.554688 C 158.496094 77.835938 158.855469 76.234375 159.574219 74.746094 C 160.292969 73.257813 161.324219 72.152344 162.675781 71.429688 C 164.019531 70.707031 165.574219 70.34375 167.332031 70.34375 C 168.605469 70.34375 169.761719 70.550781 170.789063 70.964844 C 171.820313 71.378906 172.632813 71.957031 173.21875 72.691406 C 173.800781 73.433594 174.246094 74.394531 174.554688 75.582031 L 172.445313 76.160156 C 172.183594 75.261719 171.851563 74.554688 171.460938 74.042969 C 171.066406 73.527344 170.503906 73.117188 169.773438 72.808594 C 169.042969 72.5 168.234375 72.34375 167.34375 72.34375 C 166.277344 72.34375 165.355469 72.507813 164.574219 72.832031 C 163.796875 73.15625 163.167969 73.585938 162.691406 74.113281 C 162.214844 74.640625 161.84375 75.226563 161.578125 75.859375 C 161.128906 76.949219 160.902344 78.132813 160.902344 79.40625 C 160.902344 80.980469 161.175781 82.296875 161.71875 83.355469 C 162.257813 84.417969 163.046875 85.203125 164.082031 85.714844 C 165.117188 86.230469 166.214844 86.488281 167.378906 86.488281 C 168.390625 86.488281 169.378906 86.292969 170.339844 85.902344 C 171.304688 85.515625 172.03125 85.097656 172.53125 84.65625 L 172.53125 81.371094 L 167.34375 81.371094 "/>
<path style=" stroke:none;fill-rule:nonzero;fill:rgb(13.699341%,12.199402%,12.5%);fill-opacity:1;" d="M 178.378906 88.292969 L 178.378906 70.648438 L 190.285156 70.648438 L 190.285156 72.730469 L 180.714844 72.730469 L 180.714844 78.195313 L 188.996094 78.195313 L 188.996094 80.273438 L 180.714844 80.273438 L 180.714844 88.292969 L 178.378906 88.292969 "/>
<path style=" stroke:none;fill-rule:nonzero;fill:rgb(13.699341%,12.199402%,12.5%);fill-opacity:1;" d="M 193.363281 88.292969 L 193.363281 70.648438 L 206.121094 70.648438 L 206.121094 72.730469 L 195.699219 72.730469 L 195.699219 78.132813 L 205.460938 78.132813 L 205.460938 80.203125 L 195.699219 80.203125 L 195.699219 86.210938 L 206.53125 86.210938 L 206.53125 88.292969 L 193.363281 88.292969 "/>
<path style=" stroke:none;fill-rule:nonzero;fill:rgb(13.699341%,12.199402%,12.5%);fill-opacity:1;" d="M 209.734375 88.292969 L 209.734375 70.648438 L 212.128906 70.648438 L 221.394531 84.5 L 221.394531 70.648438 L 223.636719 70.648438 L 223.636719 88.292969 L 221.238281 88.292969 L 211.972656 74.425781 L 211.972656 88.292969 L 209.734375 88.292969 "/>
<path style=" stroke:none;fill-rule:nonzero;fill:rgb(13.699341%,12.199402%,12.5%);fill-opacity:1;" d="M 235.8125 81.371094 L 235.8125 79.300781 L 243.289063 79.289063 L 243.289063 85.835938 C 242.140625 86.75 240.957031 87.4375 239.738281 87.902344 C 238.519531 88.359375 237.265625 88.59375 235.980469 88.59375 C 234.25 88.59375 232.675781 88.21875 231.257813 87.480469 C 229.84375 86.738281 228.773438 85.664063 228.050781 84.257813 C 227.328125 82.855469 226.96875 81.285156 226.96875 79.554688 C 226.96875 77.835938 227.328125 76.234375 228.046875 74.746094 C 228.761719 73.257813 229.796875 72.152344 231.144531 71.429688 C 232.492188 70.707031 234.046875 70.34375 235.804688 70.34375 C 237.078125 70.34375 238.230469 70.550781 239.261719 70.964844 C 240.292969 71.378906 241.101563 71.957031 241.6875 72.691406 C 242.273438 73.433594 242.71875 74.394531 243.023438 75.582031 L 240.917969 76.160156 C 240.652344 75.261719 240.324219 74.554688 239.929688 74.042969 C 239.535156 73.527344 238.976563 73.117188 238.246094 72.808594 C 237.515625 72.5 236.703125 72.34375 235.8125 72.34375 C 234.746094 72.34375 233.824219 72.507813 233.046875 72.832031 C 232.269531 73.15625 231.640625 73.585938 231.164063 74.113281 C 230.6875 74.640625 230.3125 75.226563 230.050781 75.859375 C 229.601563 76.949219 229.375 78.132813 229.375 79.40625 C 229.375 80.980469 229.644531 82.296875 230.1875 83.355469 C 230.730469 84.417969 231.519531 85.203125 232.554688 85.714844 C 233.589844 86.230469 234.6875 86.488281 235.851563 86.488281 C 236.859375 86.488281 237.847656 86.292969 238.8125 85.902344 C 239.773438 85.515625 240.503906 85.097656 241.003906 84.65625 L 241.003906 81.371094 L 235.8125 81.371094 "/>
<path style=" stroke:none;fill-rule:nonzero;fill:rgb(13.699341%,12.199402%,12.5%);fill-opacity:1;" d="M 253.507813 88.292969 L 253.507813 70.648438 L 257.019531 70.648438 L 261.195313 83.140625 C 261.582031 84.304688 261.863281 85.175781 262.039063 85.75 C 262.238281 85.109375 262.554688 84.167969 262.980469 82.921875 L 267.203125 70.648438 L 270.34375 70.648438 L 270.34375 88.292969 L 268.09375 88.292969 L 268.09375 73.523438 L 262.96875 88.292969 L 260.859375 88.292969 L 255.757813 73.273438 L 255.757813 88.292969 L 253.507813 88.292969 "/>
<path style=" stroke:none;fill-rule:nonzero;fill:rgb(13.699341%,12.199402%,12.5%);fill-opacity:1;" d="M 275.808594 79.730469 C 275.808594 81.863281 276.378906 83.535156 277.523438 84.761719 C 278.667969 85.984375 280.101563 86.59375 281.828125 86.59375 C 283.585938 86.59375 285.03125 85.976563 286.164063 84.742188 C 287.300781 83.507813 287.867188 81.753906 287.867188 79.480469 C 287.867188 78.042969 287.625 76.789063 287.140625 75.722656 C 286.652344 74.648438 285.945313 73.820313 285.011719 73.230469 C 284.074219 72.636719 283.027344 72.34375 281.863281 72.34375 C 280.210938 72.34375 278.789063 72.910156 277.59375 74.046875 C 276.402344 75.183594 275.808594 77.078125 275.808594 79.730469 Z M 273.402344 79.699219 C 273.402344 76.769531 274.1875 74.476563 275.761719 72.820313 C 277.332031 71.164063 279.363281 70.335938 281.851563 70.335938 C 283.480469 70.335938 284.949219 70.722656 286.253906 71.5 C 287.5625 72.28125 288.5625 73.363281 289.246094 74.757813 C 289.933594 76.148438 290.277344 77.730469 290.277344 79.492188 C 290.277344 81.285156 289.914063 82.882813 289.191406 84.296875 C 288.472656 85.707031 287.445313 86.777344 286.125 87.503906 C 284.800781 88.230469 283.371094 88.59375 281.835938 88.59375 C 280.179688 88.59375 278.691406 88.191406 277.386719 87.386719 C 276.078125 86.585938 275.089844 85.492188 274.414063 84.101563 C 273.738281 82.714844 273.402344 81.246094 273.402344 79.699219 "/>
<path style=" stroke:none;fill-rule:nonzero;fill:rgb(13.699341%,12.199402%,12.5%);fill-opacity:1;" d="M 297.769531 88.292969 L 297.769531 72.730469 L 291.960938 72.730469 L 291.960938 70.648438 L 305.945313 70.648438 L 305.945313 72.730469 L 300.109375 72.730469 L 300.109375 88.292969 L 297.769531 88.292969 "/>
<path style=" stroke:none;fill-rule:nonzero;fill:rgb(13.699341%,12.199402%,12.5%);fill-opacity:1;" d="M 309.59375 79.730469 C 309.59375 81.863281 310.164063 83.535156 311.308594 84.761719 C 312.449219 85.984375 313.886719 86.59375 315.609375 86.59375 C 317.363281 86.59375 318.8125 85.976563 319.949219 84.742188 C 321.085938 83.507813 321.652344 81.753906 321.652344 79.480469 C 321.652344 78.042969 321.410156 76.789063 320.921875 75.722656 C 320.4375 74.648438 319.726563 73.820313 318.792969 73.230469 C 317.859375 72.636719 316.808594 72.34375 315.648438 72.34375 C 313.992188 72.34375 312.570313 72.910156 311.378906 74.046875 C 310.191406 75.183594 309.59375 77.078125 309.59375 79.730469 Z M 307.183594 79.699219 C 307.183594 76.769531 307.972656 74.476563 309.546875 72.820313 C 311.117188 71.164063 313.144531 70.335938 315.632813 70.335938 C 317.265625 70.335938 318.730469 70.722656 320.042969 71.5 C 321.347656 72.28125 322.34375 73.363281 323.03125 74.757813 C 323.714844 76.148438 324.058594 77.730469 324.058594 79.492188 C 324.058594 81.285156 323.699219 82.882813 322.972656 84.296875 C 322.253906 85.707031 321.230469 86.777344 319.90625 87.503906 C 318.585938 88.230469 317.152344 88.59375 315.625 88.59375 C 313.964844 88.59375 312.480469 88.191406 311.171875 87.386719 C 309.859375 86.585938 308.867188 85.492188 308.195313 84.101563 C 307.523438 82.714844 307.183594 81.246094 307.183594 79.699219 "/>
<path style=" stroke:none;fill-rule:nonzero;fill:rgb(13.699341%,12.199402%,12.5%);fill-opacity:1;" d="M 329.4375 78.433594 L 334.457031 78.433594 C 335.527344 78.433594 336.359375 78.324219 336.964844 78.101563 C 337.5625 77.882813 338.023438 77.53125 338.332031 77.042969 C 338.648438 76.558594 338.800781 76.03125 338.800781 75.460938 C 338.800781 74.628906 338.503906 73.941406 337.894531 73.402344 C 337.289063 72.867188 336.335938 72.597656 335.023438 72.597656 L 329.4375 72.597656 Z M 327.105469 88.292969 L 327.105469 70.648438 L 334.925781 70.648438 C 336.5 70.648438 337.695313 70.804688 338.519531 71.125 C 339.335938 71.4375 339.988281 72 340.476563 72.804688 C 340.964844 73.605469 341.210938 74.492188 341.210938 75.460938 C 341.210938 76.710938 340.804688 77.769531 339.992188 78.625 C 339.183594 79.484375 337.933594 80.03125 336.238281 80.265625 C 336.855469 80.558594 337.324219 80.855469 337.644531 81.140625 C 338.328125 81.769531 338.976563 82.550781 339.585938 83.488281 L 342.652344 88.292969 L 339.71875 88.292969 L 337.386719 84.621094 C 336.703125 83.558594 336.140625 82.753906 335.699219 82.191406 C 335.257813 81.628906 334.863281 81.234375 334.515625 81.011719 C 334.160156 80.785156 333.808594 80.628906 333.445313 80.539063 C 333.183594 80.484375 332.746094 80.457031 332.148438 80.457031 L 329.4375 80.457031 L 329.4375 88.292969 L 327.105469 88.292969 "/>
<path style=" stroke:none;fill-rule:nonzero;fill:rgb(13.699341%,12.199402%,12.5%);fill-opacity:1;" d="M 364.304688 82.105469 L 366.640625 82.695313 C 366.152344 84.613281 365.273438 86.078125 364 87.082031 C 362.726563 88.089844 361.171875 88.59375 359.335938 88.59375 C 357.433594 88.59375 355.890625 88.207031 354.691406 87.429688 C 353.503906 86.65625 352.597656 85.535156 351.972656 84.070313 C 351.355469 82.597656 351.039063 81.023438 351.039063 79.335938 C 351.039063 77.5 351.394531 75.894531 352.097656 74.527344 C 352.796875 73.160156 353.796875 72.121094 355.089844 71.410156 C 356.386719 70.703125 357.816406 70.34375 359.375 70.34375 C 361.136719 70.34375 362.621094 70.792969 363.824219 71.695313 C 365.03125 72.59375 365.867188 73.859375 366.34375 75.484375 L 364.042969 76.027344 C 363.632813 74.742188 363.035156 73.808594 362.261719 73.222656 C 361.484375 72.636719 360.5 72.34375 359.324219 72.34375 C 357.964844 72.34375 356.832031 72.667969 355.921875 73.320313 C 355.011719 73.96875 354.375 74.839844 354.003906 75.9375 C 353.636719 77.03125 353.449219 78.160156 353.449219 79.324219 C 353.449219 80.824219 353.667969 82.136719 354.105469 83.253906 C 354.542969 84.375 355.222656 85.210938 356.144531 85.765625 C 357.070313 86.316406 358.066406 86.59375 359.140625 86.59375 C 360.453125 86.59375 361.554688 86.214844 362.464844 85.460938 C 363.371094 84.710938 363.984375 83.589844 364.304688 82.105469 "/>
<path style=" stroke:none;fill-rule:nonzero;fill:rgb(13.699341%,12.199402%,12.5%);fill-opacity:1;" d="M 371.214844 79.730469 C 371.214844 81.863281 371.789063 83.535156 372.933594 84.761719 C 374.074219 85.984375 375.511719 86.59375 377.234375 86.59375 C 378.992188 86.59375 380.4375 85.976563 381.574219 84.742188 C 382.707031 83.507813 383.277344 81.753906 383.277344 79.480469 C 383.277344 78.042969 383.03125 76.789063 382.546875 75.722656 C 382.0625 74.648438 381.351563 73.820313 380.417969 73.230469 C 379.484375 72.636719 378.433594 72.34375 377.269531 72.34375 C 375.617188 72.34375 374.195313 72.910156 373.007813 74.046875 C 371.8125 75.183594 371.214844 77.078125 371.214844 79.730469 Z M 368.8125 79.699219 C 368.8125 76.769531 369.59375 74.476563 371.167969 72.820313 C 372.738281 71.164063 374.769531 70.335938 377.257813 70.335938 C 378.890625 70.335938 380.355469 70.722656 381.660156 71.5 C 382.976563 72.28125 383.96875 73.363281 384.652344 74.757813 C 385.339844 76.148438 385.683594 77.730469 385.683594 79.492188 C 385.683594 81.285156 385.320313 82.882813 384.597656 84.296875 C 383.878906 85.707031 382.855469 86.777344 381.53125 87.503906 C 380.207031 88.230469 378.777344 88.59375 377.25 88.59375 C 375.585938 88.59375 374.105469 88.191406 372.792969 87.386719 C 371.484375 86.585938 370.492188 85.492188 369.820313 84.101563 C 369.148438 82.714844 368.8125 81.246094 368.8125 79.699219 "/>
<path style=" stroke:none;fill-rule:nonzero;fill:rgb(13.699341%,12.199402%,12.5%);fill-opacity:1;" d="M 391.0625 78.433594 L 396.082031 78.433594 C 397.144531 78.433594 397.984375 78.324219 398.582031 78.101563 C 399.1875 77.882813 399.644531 77.53125 399.957031 77.042969 C 400.269531 76.558594 400.429688 76.03125 400.429688 75.460938 C 400.429688 74.628906 400.121094 73.941406 399.519531 73.402344 C 398.914063 72.867188 397.957031 72.597656 396.648438 72.597656 L 391.0625 72.597656 Z M 388.726563 88.292969 L 388.726563 70.648438 L 396.550781 70.648438 C 398.125 70.648438 399.320313 70.804688 400.136719 71.125 C 400.957031 71.4375 401.609375 72 402.097656 72.804688 C 402.59375 73.605469 402.832031 74.492188 402.832031 75.460938 C 402.832031 76.710938 402.425781 77.769531 401.617188 78.625 C 400.804688 79.484375 399.558594 80.03125 397.863281 80.265625 C 398.480469 80.558594 398.949219 80.855469 399.269531 81.140625 C 399.953125 81.769531 400.597656 82.550781 401.207031 83.488281 L 404.277344 88.292969 L 401.34375 88.292969 L 399.007813 84.621094 C 398.320313 83.558594 397.761719 82.753906 397.320313 82.191406 C 396.882813 81.628906 396.484375 81.234375 396.136719 81.011719 C 395.785156 80.785156 395.433594 80.628906 395.070313 80.539063 C 394.804688 80.484375 394.371094 80.457031 393.769531 80.457031 L 391.0625 80.457031 L 391.0625 88.292969 L 388.726563 88.292969 "/>
<path style=" stroke:none;fill-rule:nonzero;fill:rgb(13.699341%,12.199402%,12.5%);fill-opacity:1;" d="M 408.828125 79.035156 L 413.386719 79.035156 C 414.894531 79.035156 415.964844 78.753906 416.597656 78.195313 C 417.234375 77.632813 417.554688 76.839844 417.554688 75.824219 C 417.554688 75.085938 417.363281 74.453125 416.992188 73.925781 C 416.617188 73.402344 416.128906 73.054688 415.519531 72.886719 C 415.121094 72.78125 414.398438 72.730469 413.339844 72.730469 L 408.828125 72.730469 Z M 406.492188 88.292969 L 406.492188 70.648438 L 413.148438 70.648438 C 414.320313 70.648438 415.214844 70.703125 415.828125 70.8125 C 416.695313 70.957031 417.421875 71.234375 418.007813 71.640625 C 418.597656 72.046875 419.066406 72.613281 419.425781 73.34375 C 419.777344 74.074219 419.957031 74.875 419.957031 75.75 C 419.957031 77.25 419.484375 78.519531 418.523438 79.558594 C 417.574219 80.597656 415.851563 81.117188 413.351563 81.117188 L 408.828125 81.117188 L 408.828125 88.292969 L 406.492188 88.292969 "/>
<path style=" stroke:none;fill-rule:nonzero;fill:rgb(13.699341%,12.199402%,12.5%);fill-opacity:1;" d="M 424.628906 79.730469 C 424.628906 81.863281 425.203125 83.535156 426.34375 84.761719 C 427.488281 85.984375 428.925781 86.59375 430.648438 86.59375 C 432.402344 86.59375 433.851563 85.976563 434.988281 84.742188 C 436.121094 83.507813 436.691406 81.753906 436.691406 79.480469 C 436.691406 78.042969 436.445313 76.789063 435.960938 75.722656 C 435.476563 74.648438 434.765625 73.820313 433.832031 73.230469 C 432.898438 72.636719 431.847656 72.34375 430.683594 72.34375 C 429.03125 72.34375 427.609375 72.910156 426.417969 74.046875 C 425.230469 75.183594 424.628906 77.078125 424.628906 79.730469 Z M 422.222656 79.699219 C 422.222656 76.769531 423.007813 74.476563 424.578125 72.820313 C 426.152344 71.164063 428.1875 70.335938 430.671875 70.335938 C 432.304688 70.335938 433.769531 70.722656 435.074219 71.5 C 436.386719 72.28125 437.382813 73.363281 438.066406 74.757813 C 438.753906 76.148438 439.097656 77.730469 439.097656 79.492188 C 439.097656 81.285156 438.730469 82.882813 438.011719 84.296875 C 437.289063 85.707031 436.269531 86.777344 434.941406 87.503906 C 433.617188 88.230469 432.191406 88.59375 430.660156 88.59375 C 428.996094 88.59375 427.515625 88.191406 426.203125 87.386719 C 424.898438 86.585938 423.90625 85.492188 423.234375 84.101563 C 422.5625 82.714844 422.222656 81.246094 422.222656 79.699219 "/>
<path style=" stroke:none;fill-rule:nonzero;fill:rgb(13.699341%,12.199402%,12.5%);fill-opacity:1;" d="M 444.476563 78.433594 L 449.496094 78.433594 C 450.558594 78.433594 451.398438 78.324219 451.996094 78.101563 C 452.601563 77.882813 453.058594 77.53125 453.371094 77.042969 C 453.683594 76.558594 453.839844 76.03125 453.839844 75.460938 C 453.839844 74.628906 453.535156 73.941406 452.929688 73.402344 C 452.328125 72.867188 451.367188 72.597656 450.0625 72.597656 L 444.476563 72.597656 Z M 442.140625 88.292969 L 442.140625 70.648438 L 449.964844 70.648438 C 451.539063 70.648438 452.734375 70.804688 453.550781 71.125 C 454.367188 71.4375 455.019531 72 455.511719 72.804688 C 456.003906 73.605469 456.246094 74.492188 456.246094 75.460938 C 456.246094 76.710938 455.839844 77.769531 455.03125 78.625 C 454.21875 79.484375 452.972656 80.03125 451.277344 80.265625 C 451.894531 80.558594 452.363281 80.855469 452.683594 81.140625 C 453.367188 81.769531 454.011719 82.550781 454.621094 83.488281 L 457.691406 88.292969 L 454.753906 88.292969 L 452.417969 84.621094 C 451.734375 83.558594 451.175781 82.753906 450.734375 82.191406 C 450.292969 81.628906 449.894531 81.234375 449.546875 81.011719 C 449.199219 80.785156 448.847656 80.628906 448.484375 80.539063 C 448.21875 80.484375 447.789063 80.457031 447.183594 80.457031 L 444.476563 80.457031 L 444.476563 88.292969 L 442.140625 88.292969 "/>
<path style=" stroke:none;fill-rule:nonzero;fill:rgb(13.699341%,12.199402%,12.5%);fill-opacity:1;" d="M 463.058594 81.046875 L 469.039063 81.046875 L 467.195313 76.160156 C 466.636719 74.675781 466.21875 73.457031 465.949219 72.5 C 465.722656 73.628906 465.40625 74.753906 464.996094 75.871094 Z M 457.96875 88.292969 L 464.742188 70.648438 L 467.261719 70.648438 L 474.480469 88.292969 L 471.824219 88.292969 L 469.761719 82.949219 L 462.386719 82.949219 L 460.445313 88.292969 L 457.96875 88.292969 "/>
<path style=" stroke:none;fill-rule:nonzero;fill:rgb(13.699341%,12.199402%,12.5%);fill-opacity:1;" d="M 479.003906 88.292969 L 479.003906 72.730469 L 473.191406 72.730469 L 473.191406 70.648438 L 487.179688 70.648438 L 487.179688 72.730469 L 481.339844 72.730469 L 481.339844 88.292969 L 479.003906 88.292969 "/>
<path style=" stroke:none;fill-rule:nonzero;fill:rgb(13.699341%,12.199402%,12.5%);fill-opacity:1;" d="M 489.96875 88.292969 L 489.96875 70.648438 L 492.304688 70.648438 L 492.304688 88.292969 L 489.96875 88.292969 "/>
<path style=" stroke:none;fill-rule:nonzero;fill:rgb(13.699341%,12.199402%,12.5%);fill-opacity:1;" d="M 498.117188 79.730469 C 498.117188 81.863281 498.691406 83.535156 499.835938 84.761719 C 500.980469 85.984375 502.414063 86.59375 504.140625 86.59375 C 505.894531 86.59375 507.34375 85.976563 508.480469 84.742188 C 509.609375 83.507813 510.183594 81.753906 510.183594 79.480469 C 510.183594 78.042969 509.9375 76.789063 509.449219 75.722656 C 508.96875 74.648438 508.257813 73.820313 507.320313 73.230469 C 506.390625 72.636719 505.339844 72.34375 504.171875 72.34375 C 502.523438 72.34375 501.097656 72.910156 499.910156 74.046875 C 498.71875 75.183594 498.117188 77.078125 498.117188 79.730469 Z M 495.714844 79.699219 C 495.714844 76.769531 496.496094 74.476563 498.070313 72.820313 C 499.644531 71.164063 501.675781 70.335938 504.160156 70.335938 C 505.792969 70.335938 507.257813 70.722656 508.566406 71.5 C 509.878906 72.28125 510.871094 73.363281 511.558594 74.757813 C 512.242188 76.148438 512.585938 77.730469 512.585938 79.492188 C 512.585938 81.285156 512.222656 82.882813 511.503906 84.296875 C 510.78125 85.707031 509.761719 86.777344 508.4375 87.503906 C 507.109375 88.230469 505.683594 88.59375 504.152344 88.59375 C 502.488281 88.59375 501.007813 88.191406 499.695313 87.386719 C 498.390625 86.585938 497.398438 85.492188 496.722656 84.101563 C 496.050781 82.714844 495.714844 81.246094 495.714844 79.699219 "/>
<g clip-path="url(#clip3)" clip-rule="nonzero">
<path style=" stroke:none;fill-rule:nonzero;fill:rgb(13.699341%,12.199402%,12.5%);fill-opacity:1;" d="M 515.570313 88.292969 L 515.570313 70.648438 L 517.96875 70.648438 L 527.234375 84.5 L 527.234375 70.648438 L 529.46875 70.648438 L 529.46875 88.292969 L 527.078125 88.292969 L 517.808594 74.425781 L 517.808594 88.292969 L 515.570313 88.292969 "/>
</g>
</g>
</svg>
