<svg width="198" height="25" viewBox="0 0 198 25" fill="none" xmlns="http://www.w3.org/2000/svg">
    <path d="M157.73 2.70519C156.964 2.02781 156.069 1.49731 155.047 1.11164C154.026 0.726603 152.927 0.533764 151.755 0.533764H143.578V5.23485H151.755C152.627 5.23485 153.363 5.50109 153.965 6.03166C154.564 6.56358 154.866 7.214 154.866 7.98422V24.4941H160.188V7.98422C160.188 6.94805 159.97 5.97896 159.534 5.07584C159.098 4.173 158.498 3.38172 157.73 2.70519Z" fill="currentColor"/>
    <path d="M160.797 5.31641H171.475V0.495892H160.797V5.31641Z" fill="currentColor"/>
    <path d="M49.0314 0.455965C49.0345 1.07044 49.0365 1.81789 49.0365 1.9259C49.0387 4.40463 48.6177 10.6419 44.6713 14.9911C42.7819 17.0745 40.3209 18.4777 37.3572 19.1633C37.1344 19.2157 36.8896 19.2611 36.6183 19.3011C36.0327 19.3764 35.1937 19.3997 34.6014 19.4049H33.8904V0.455965H28.4473V24.4941H32.4154C34.6765 24.4941 36.7056 24.4568 38.6566 24.0058C45.8669 22.3377 50.8724 17.6194 53.1306 10.3626C54.1526 7.0789 54.3843 3.98768 54.399 1.97299C54.4007 1.79987 54.3998 1.05434 54.3982 0.455965H49.0314Z" fill="currentColor"/>
    <path d="M7.47225 14.7052L19.3099 14.7011V10.5527L6.86018 10.5723C3.03038 10.5723 0 11.7774 0 15.6721L0.00557671 24.4551H23.2175V19.7543H5.44704L5.43951 16.5965C5.43784 15.553 6.34824 14.7052 7.47225 14.7052Z" fill="currentColor"/>
    <path d="M0.00390625 0.455151V4.93872C0.00390625 7.66787 2.4387 9.88086 5.44203 9.88086V5.1568H23.2169V5.1407V0.455151H0.00390625Z" fill="currentColor"/>
    <path d="M89.0605 17.0019V0.488886H94.5512V16.5254C94.5512 17.2955 94.846 17.9463 95.4364 18.4785C96.0281 19.0087 96.7498 19.2747 97.6049 19.2747H113.398V24.4551H97.3351C96.1844 24.4551 95.108 24.2615 94.1051 23.8769C93.1029 23.4912 92.2242 22.9602 91.4718 22.2823C90.7195 21.6049 90.1298 20.8148 89.7016 19.9114C89.274 19.0077 89.0605 18.038 89.0605 17.0019Z" fill="currentColor"/>
    <path d="M197.628 5.19557V0.494492H174.671V24.4551H197.628V19.754H180.114V14.2517H194.294V10.1446H180.114V5.19557H197.628Z" fill="currentColor"/>
    <path d="M83.9964 6.25901C82.4367 3.51687 80.0497 1.72714 76.7033 0.787992C74.8453 0.266359 73.01 0.00813293 71.2029 -0.000732422C69.3955 0.00813293 67.5613 0.266359 65.7032 0.787992C62.3563 1.72714 59.9701 3.51687 58.4094 6.25901C57.1162 8.53157 56.6528 11.1321 56.9921 14.2081C57.4112 18.0041 59.1712 20.8006 62.3739 22.7598C64.7297 24.2006 67.5382 24.8957 71.2029 24.9492C74.8681 24.8957 77.677 24.2006 80.0326 22.7598C83.2355 20.8006 84.995 18.0041 85.414 14.2081C85.7538 11.1321 85.2906 8.53157 83.9964 6.25901ZM75.4392 19.3436C74.1628 19.755 73.2592 19.9021 71.2029 19.9021C69.1474 19.9021 68.2437 19.755 66.9668 19.3436C64.0932 18.4155 62.447 16.23 62.332 13.1875C62.2989 12.288 62.3527 11.4282 62.4941 10.6307C62.8925 8.39107 64.2214 6.79284 66.4426 5.87666C67.8547 5.29489 69.2823 5.07106 71.2029 5.07106C73.1235 5.07106 74.5519 5.29489 75.9638 5.87666C78.1845 6.79284 79.5136 8.39107 79.9119 10.6307C80.054 11.4282 80.1075 12.288 80.074 13.1875C79.9591 16.23 78.313 18.4155 75.4392 19.3436Z" fill="currentColor"/>
    <path d="M134.626 0.535332L134.615 13.7197C134.61 14.4203 134.518 15.1351 134.343 15.8448C133.85 17.8357 132.437 19.1732 130.256 19.7131C129.411 19.9224 128.549 20.0118 127.678 20.009C126.808 20.0118 125.945 19.9224 125.101 19.7131C122.919 19.1732 121.507 17.8357 121.013 15.8448C120.837 15.1351 120.746 14.4203 120.742 13.7197L120.731 0.535332H115.264L115.275 13.9851C115.282 14.9999 115.366 15.8598 115.531 16.6131C116.389 20.5476 118.779 23.0728 122.837 24.3328C124.364 24.8066 125.99 25.0102 127.678 24.9996C129.366 25.0102 130.992 24.8066 132.52 24.3328C136.578 23.0728 138.967 20.5476 139.826 16.6131C139.99 15.8598 140.075 14.9999 140.08 13.9851L140.093 0.535332H134.626Z" fill="currentColor"/>
</svg>
