<svg width="126" height="14" fill="none" xmlns="http://www.w3.org/2000/svg">
    <path fill-rule="evenodd" clip-rule="evenodd"
        d="M105.372 14V0h17.636A2.991 2.991 0 01126 2.99v8.02c0 1.65-1.34 2.99-2.992 2.99h-17.636zm15.705-11.453h-12.275v8.906h12.275c.824 0 1.494-.668 1.494-1.494V4.04c0-.826-.67-1.494-1.494-1.494z"
        fill="#000" />
    <path
        d="M2.967.02A2.967 2.967 0 000 2.986v7.956a2.966 2.966 0 002.967 2.964h17.494V11.38H4.885c-.82 0-1.483-.664-1.483-1.482V8.12h15.806V5.596H3.402V4.028c0-.82.663-1.481 1.483-1.481H20.46V.02H2.967zm33.628 5.209L30.03.149h-4.45l8.789 6.802-8.79 6.803h4.452l6.564-5.08 6.563 5.08h4.452L38.82 6.95l8.79-6.8h-4.452l-6.563 5.08zm16.134-2.232A2.966 2.966 0 0155.696.033h17.493v2.525H57.612c-.82 0-1.483.663-1.483 1.482v1.566h15.807v2.526H56.13v1.78c0 .816.664 1.48 1.483 1.48H73.19v2.527H55.697a2.966 2.966 0 01-2.967-2.964V2.997zM82.06.044a2.966 2.966 0 00-2.968 2.965v7.957a2.966 2.966 0 002.968 2.965h17.493v-2.525H83.977c-.82 0-1.484-.665-1.484-1.483V8.145h15.806V5.617H82.493V4.053c0-.82.664-1.483 1.484-1.483h15.576V.044H82.06z"
        fill="#000" />
</svg>