<svg xmlns="http://www.w3.org/2000/svg" xmlns:xlink="http://www.w3.org/1999/xlink" width="198" height="50"
    viewBox="0 0 198 50">
    <defs>
        <radialGradient id="a" cx="34.613%" cy="13.519%" r="67.294%" fx="34.613%" fy="13.519%"
            gradientTransform="matrix(.6376 0 0 1 .125 0)">
            <stop offset="0%" stop-color="#BAD7E8"></stop>
            <stop offset="52.203%" stop-color="#0D4A91"></stop>
            <stop offset="100%" stop-color="#223266"></stop>
        </radialGradient>
        <linearGradient id="b" x1="50%" x2="50%" y1="3.727%" y2="98.398%">
            <stop offset="0%" stop-color="#FFF"></stop>
            <stop offset="100%" stop-color="#DBDCDF"></stop>
        </linearGradient>
        <path id="d"
            d="M38 4C19.198 4 4 13.474 4 25c0 11.684 15.198 21 34 21s34-9.474 34-21C71.843 13.316 56.645 4 38 4zm0 39.632C20.922 43.632 7.134 35.263 7.134 25 7.134 14.737 20.922 6.368 38 6.368S68.71 14.737 68.71 25c0 10.263-13.788 18.632-30.71 18.632z">
        </path>
        <filter id="c" width="105.9%" height="109.5%" x="-2.9%" y="-2.4%" filterUnits="objectBoundingBox">
            <feOffset dy="1" in="SourceAlpha" result="shadowOffsetOuter1"></feOffset>
            <feGaussianBlur in="shadowOffsetOuter1" result="shadowBlurOuter1" stdDeviation=".5"></feGaussianBlur>
            <feColorMatrix in="shadowBlurOuter1" values="0 0 0 0 0 0 0 0 0 0 0 0 0 0 0 0 0 0 0.305027174 0">
            </feColorMatrix>
        </filter>
        <path id="f"
            d="M31.719 30.625L27.5 32.5H15.937l1.72 3.594s.468.937 1.718.937H27.5l4.219-1.875v-4.531zm10.156 7.188c-1.406-.313-1.25-1.563-1.25-1.563V10h-3.594l-5.156 2.344V15c2.344-1.25 2.344.781 2.344.781l.156 20.625c0 1.407-1.25 1.407-1.25 1.407h-1.563V40h11.875v-2.031l-1.562-.157zm-10.156-13.75H12.344l1.562 4.062c.625.938 1.25.781 1.25.781H31.72v-4.843zm-18.907-1.72h19.063V17.5H10l1.563 4.063c.624.937 1.25.78 1.25.78zm34.844-4.687v-.781h-4.531V22.5l18.594-.156c1.718-.157 1.718-.782 1.718-.782L65 17.813l-17.344-.156zm-.468 13.125h-4.22v4.375h4.063l2.657 2.032h5.937c1.25-.157 1.406-.938 1.406-.938l1.719-3.438h-8.906l-2.657-2.03zm-4.063-2.031h16.094c.937 0 1.406-.781 1.406-.781l1.719-3.75H42.969l.156 4.531z">
        </path>
        <filter id="e" width="107.3%" height="113.3%" x="-3.6%" y="-3.3%" filterUnits="objectBoundingBox">
            <feOffset dy="1" in="SourceAlpha" result="shadowOffsetOuter1"></feOffset>
            <feGaussianBlur in="shadowOffsetOuter1" result="shadowBlurOuter1" stdDeviation=".5"></feGaussianBlur>
            <feColorMatrix in="shadowBlurOuter1" values="0 0 0 0 0 0 0 0 0 0 0 0 0 0 0 0 0 0 0.305027174 0">
            </feColorMatrix>
        </filter>
    </defs>
    <g fill="none" fill-rule="nonzero">
        <g>
            <ellipse cx="38.349" cy="25" fill="url(#a)" rx="37.249" ry="23.75"></ellipse>
            <path fill="url(#b)"
                d="M38.35 49.063c-10.06 0-19.332-2.5-26.405-7.032C4.872 37.5.943 31.406.943 25c0-6.406 3.93-12.5 11.002-17.031C19.018 3.437 28.448.937 38.349.937c10.06 0 19.332 2.5 26.405 7.032C71.827 12.5 75.756 18.594 75.756 25c0 6.406-3.93 12.5-11.002 17.031-7.073 4.532-16.503 7.032-26.405 7.032zm0-47.5C18.074 1.563 1.414 12.187 1.414 25c0 12.969 16.502 23.438 36.934 23.438 20.433 0 36.935-10.626 36.935-23.438-.157-12.969-16.66-23.438-36.935-23.438z">
            </path>
        </g>
        <path fill="#00408A"
            d="M116 22H96.026v-5.917l22.66-.157L121.5 9H91c-1.574 0-3 1.574-3 3.148V43h8.026L96 29h17.5l2.5-7zm73.03-11.111l-7.711 19.518L176 9h-7l-5.464 21.25L155 9h-8.302L161.5 43h7.072l3.777-17.63L176.5 43h7L198 9h-6.5c-1.102.157-1.998.787-2.47 1.889zm-60.43 0L115 43h8l3.5-8h16l3.097 8h8.655L139.774 9h-8.655c-.944.157-2.046.944-2.518 1.889zM129.5 29l4.923-12.444L139.774 29H129.5z">
        </path>
        <g>
            <use fill="#000" filter="url(#c)" xlink:href="#d"></use>
            <use fill="url(#b)" fill-rule="evenodd" xlink:href="#d"></use>
        </g>
        <g>
            <use fill="#000" filter="url(#e)" xlink:href="#f"></use>
            <use fill="url(#b)" fill-rule="evenodd" xlink:href="#f"></use>
        </g>
    </g>
</svg>