<svg version="1.1" baseProfile="basic" id="Layer_1" xmlns="http://www.w3.org/2000/svg" xmlns:xlink="http://www.w3.org/1999/xlink" x="0px" y="0px" viewBox="0 0 130 96" xml:space="preserve">
<path id="Path_654" fill="#191F27" d="M31.2,27.5l0.1-0.8l0.1-0.4l0.1-0.4l0.1-0.3l0.1-0.4l0.1-0.3l0.5-1.5l0.3-0.6l0.1-0.2l0.4-0.9
	l0.1-0.1l0.3-0.6l0.1-0.1l0.1-0.3l0.1-0.1l0.1-0.1l0.1-0.1l0.1-0.1l0.1-0.1l0.1-0.1l0.1-0.1l0.1-0.1l0.1-0.1l0.1-0.1l0.1-0.1
	l0.1-0.1l0.2-0.2l0.1-0.1l0.1-0.1l0.1-0.1l0.2-0.2l0.1-0.1l0.9-0.9l0.1-0.1l0.9-0.9l0.1-0.1l0.5-0.5l0.1-0.1l0.5-0.5l0.1-0.1
	l0.2-0.2l0.1-0.1l0.1-0.1l0.1-0.1l0.1-0.1l0.1-0.1l0.1-0.1l0.1-0.1l0.1-0.1l0.1-0.1l0.1-0.1l0.1-0.1l0.1-0.1l0.1-0.1l0.1-0.1
	l0.1-0.1l0.1-0.1l0.3-0.1l0.1-0.1l0.1-0.1l0.1-0.1l0.1-0.1l0.1-0.1l0.3-0.1l0.1-0.1l0.1-0.1l0.1-0.1l0.1-0.1l0.1-0.1l1-0.5l0.1-0.1
	l1.3-0.6l0.2-0.1l0.4-0.2l0.2-0.1l0.3-0.1l0.2-0.1l0.3-0.1l0.4-0.1l0.1-0.1l0.6-0.2L48,10l0.4-0.1l0.1-0.1L50.7,9L51,9l0.2-0.1
	l0.3-0.1l0.2-0.1L52,8.7l0.2-0.1l0.3-0.1l0.2-0.1L53,8.4l0.2-0.1l0.4-0.1l1.7-0.4l2.5-0.5L59.5,7L60,7l1.7-0.2l0.7-0.1l0.8-0.1
	l0.9-0.1l1.4-0.1h4.3l1.4,0.1l0.9,0.1L73,6.7L75.3,7l2.2,0.4l0.7,0.1l0.3,0.1l1.1,0.2L81,8.1l0.2,0.1l0.6,0.1L82,8.4l0.3,0.1
	l1.1,0.4l0.3,0.1l0.9,0.3l0.3,0.1l0.1,0.1l0.2,0.1l0.1,0.1l0.2,0.1l0.1,0.1l0.2,0.1L86,9.8l0.2,0.1l0.1,0.1l0.2,0.1l0.1,0.1l0.2,0.1
	l0.1,0.1l0.2,0.1l0.1,0.1l0.2,0.1l0.6,0.3l0.2,0.1L91,12l0.1,0.1l0.3,0.1l0.1,0.1l0.4,0.2l0.1,0.1l0.3,0.1l0.1,0.1l0.3,0.1l0.1,0.1
	l0.4,0.2l0.1,0.1l0.3,0.1l0.1,0.1l0.1,0.1l0.1,0.1l0.1,0.1l0.1,0.1l0.1,0.1l0.1,0.1l0.1,0.1l0.1,0.1l0.3,0.1l0.1,0.1l0.1,0.1
	l0.1,0.1l0.1,0.1l0.2,0.2l0.1,0.1l0.1,0.1l0.1,0.1l0.2,0.2l0.1,0.1l0.1,0.1l0.1,0.1l0.3,0.3l0.1,0.1l1,1L98,17l0.2,0.2v0.1h0.1
	l0.6,0.6v0.1h0.1l0.5,0.5v0.1h0.1l0.2,0.2v0.1h0.1l0.2,0.2v0.1h0.1l0.1,0.1v0.1h0.1l0.1,0.1v0.1h0.1l0.1,0.1v0.1h0.1v0.1h0.1
	l0.1,0.1v0.1h0.1v0.1h0.1l0.1,0.1v0.1h0.1V21h0.1l0.1,0.1v0.1h0.1v0.1h0.1l0.1,0.1v0.1h0.1v0.1h0.1l0.1,0.1V22l-1.8-0.1l-28.5-0.1
	H44.4v0.4h0.1v0.1h0.1v0.1h0.1v0.1h0.1v0.1h0.1V23h0.1l0.1,0.1v0.1H45v0.1H45v0.1h0.1v0.1h0.1v0.2h0.1v0.1h0.1v0.1h0.1v0.1h0.1v0.1
	h0.1v0.1h0.1v0.1h0.1v0.1h0.1v0.1h0.1v0.1h0.1v0.1H46v0.1H46v0.1h0.1v0.1h0.1l0.1,0.1v0.1h0.1V26h0.1v0.1h0.1v0.1h0.1v0.1h0.1v0.1
	h0.1v0.1h0.1v0.1h0.1V27h0.1v0.1H47v0.1H47v0.1h0.1v0.2h0.1v0.1h0.1v0.1h0.1V28h0.1v0.1h0.1v0.1h0.1v0.1h0.1l0.1,0.1v0.1h0.1v0.1
	h0.1V29h0.1v0.1H48v0.1H48v0.1h0.1v0.1h0.1v0.1h0.1v0.1h0.1V30h0.1v0.1h0.1v0.1h0.1v0.1h0.1v0.1h0.1l0.1,0.1v0.1h0.1v0.1h0.1L49,31
	v0.1H49l0.1,0.1v0.1h0.1l0.1,0.1v0.1h0.1l0.4,0.4v0.1h0.1l0.4,0.4l0.1,0.1l0.1,0.1l0.1,0.1l0.2,0.1l0.1,0.1l0.3,0.1l0.6,0.1
	l24.4,0.1l0.6,0.1l0.6,0.1l0.4,0.1l0.4,0.1l0.4,0.1l0.9,0.2l0.2,0.1l0.6,0.1l0.4,0.1l0.1,0.1l0.6,0.2l1.1,0.6l0.1,0.1L83,35l0.1,0.1
	l0.1,0.1l0.1,0.1l0.1,0.1l0.1,0.1l0.1,0.1l0.3,0.3l0.1,0.1l0.8,0.8v0.1h0.1l0.1,0.1v0.1h0.1l0.1,0.1v0.1h0.1l0.1,0.1v0.1h0.1v0.1
	h0.1v0.1h0.1V38h0.1l0.1,0.1v0.2h0.1v0.2H86v0.2H86v0.1h0.1v0.3h0.1v0.4h0.1V40h0.1l-0.1,1.3l-0.1,0.6l-0.1,0.4L86,42.7L86,42.9
	l-0.1,0.3l-0.1,0.2l-0.1,0.1l-0.1,0.2l-0.5,1l-0.1,0.1L85,44.9L85,45l-0.1,0.3l-0.1,0.1l-0.1,0.1l-0.2,0.2l-0.1,0.1l-1.2,1.2
	l-0.1,0.1l-0.1,0.1l-0.1,0.1l-0.1,0.1l-0.1,0.1l-0.2,0.2L82,47.9L81.9,48l-0.3,0.1l-0.1,0.1l-0.4,0.2l-0.1,0.1l-0.6,0.3l-0.2,0.1
	L80,49l-0.2,0.1l-0.1,0.1l-0.2,0.1l-0.1,0.1L79,49.4l-0.6,0.2l-0.3,0.1l-0.6,0.2L77.1,50L76.9,50l-0.4,0.1l-0.3,0.1l-0.4,0.1
	l-0.3,0.1l-0.4,0.1l-0.6,0.1l-2,0.3l-0.6,0.1L70.8,51L69.5,51v0.1L64.2,51L63.1,51l-1.9-0.1l-0.5-0.1l-0.6-0.1l-0.5-0.1l-0.6-0.1
	l-0.5-0.1l-0.4-0.1l-1.1-0.2l-0.4-0.1l-1.1-0.2l-0.3-0.1l-0.4-0.1l-0.3-0.1l-0.4-0.1L54,49.5l-0.4-0.1l-0.2-0.1l-0.9-0.2l-0.2-0.1
	L51.8,49l-0.6-0.2l-0.3-0.1L48.9,48L48.8,48l-0.4-0.1l-0.1-0.1l-0.4-0.1l-0.1-0.1l-0.2-0.1l-0.1-0.1l-0.2-0.1l-0.3-0.1l-0.2-0.1
	l-0.3-0.1L46,46.9l-0.3-0.1l-0.2-0.1l-2.4-1.2L43,45.4l-0.3-0.1l-0.1-0.1L42.4,45l-0.1-0.1l-0.1-0.1l-0.1-0.1l-0.3-0.1l-0.1-0.1
	l-0.3-0.1l-0.1-0.1l-0.1-0.1l-0.1-0.1L41,44.2L40.9,44l-0.1-0.1l-0.1-0.1l-0.1-0.1l-0.1-0.1l-0.1-0.1l-0.1-0.1l-0.1-0.1L40,43.4
	l-0.1-0.1l-0.1-0.1l-0.1-0.1l-0.2-0.2l-0.1-0.1L39,42.6l-0.1-0.1l-0.2-0.2l-0.1-0.1L38.2,42l-0.1-0.1l-0.8-0.8l-0.1-0.1l-0.9-0.9
	h-0.1V40l-0.7-0.7h-0.1v-0.1l-0.2-0.2h-0.1v-0.1l-0.2-0.2h-0.1v-0.1l-0.1-0.1h-0.1v-0.1L34.4,38h-0.1v-0.1l-0.2-0.2h-0.1v-0.1H34
	v-0.1l-0.1-0.1h-0.1v-0.1l-0.1-0.1h-0.1v-0.1h-0.1v-0.2l-0.1-0.1h-0.1v-0.1h-0.1v-0.1l-0.1-0.1h-0.1v-0.1l-0.1-0.1h-0.1V36h-0.1
	v-0.1H33v-0.1h-0.1v-0.1h-0.1v-0.1h-0.1v-0.2h-0.1V35h-0.1v-0.1h-0.1v-0.1h-0.1v-0.1h-0.1v-0.1h-0.1v-0.2h-0.1v-0.1h-0.1v-0.2h-0.1
	v-0.2H32v-0.1H32v-0.2h-0.1v-0.2h-0.1V33h-0.1v-0.3h-0.1v-0.3h-0.1v-0.3h-0.1v-0.3h-0.1v-0.3h-0.1v-0.4h-0.1v-0.6h-0.1V30h-0.1
	L31.2,27.5z M65.5,0l-1.6,0.1l-1.7,0.1l-0.8,0.1l-0.6,0.1l-0.7,0.1l-0.6,0.1l-0.7,0.1l-0.6,0.1l-0.6,0.1l-0.5,0.1l-0.4,0.1l-0.5,0.1
	L55.1,1l-0.7,0.1l-0.4,0.1l-1.1,0.2l-0.3,0.1l-0.4,0.1l-0.3,0.1l-0.4,0.1l-0.3,0.1l-0.4,0.1l-0.3,0.1L50.4,2l-1.7,0.4l-0.2,0.1
	l-0.3,0.1L48,2.7l-0.3,0.1l-0.2,0.1l-0.3,0.1L47,2.9L46.7,3l-2.2,0.7l-0.1,0.1L43.7,4l-0.1,0.1l-0.4,0.1L43,4.3l-0.2,0.1l-0.1,0.1
	l-0.2,0.1l-0.3,0.1l-0.2,0.1l-0.1,0.1l-0.2,0.1L41.3,5l-0.2,0.1l-0.4,0.2l-0.2,0.1l-0.7,0.4l-0.2,0.1l-1.4,0.7L38,6.6l-1,0.5
	l-0.1,0.1l-0.4,0.2l-0.1,0.1L36,7.7l-0.1,0.1L35.5,8L35.4,8l-0.3,0.1l-0.1,0.1l-0.1,0.1l-0.1,0.1l-0.1,0.1l-0.1,0.1l-0.3,0.1
	l-0.1,0.1l-0.1,0.1l-0.1,0.1L33.8,9l-0.1,0.1l-0.1,0.1l-0.1,0.1l-0.1,0.1l-0.1,0.1l-0.1,0.1l-0.1,0.1l-0.1,0.1l-0.1,0.1l-0.1,0.1
	L32.4,10l-0.1,0.1l-0.1,0.1l-0.1,0.1l-0.1,0.1l-0.1,0.1l-0.1,0.1l-0.1,0.1l-0.2,0.2l-0.1,0.1L31,11.1l-0.1,0.1l-0.3,0.3l-0.1,0.1
	l-0.2,0.2l-0.1,0.1L29.8,12l-0.1,0.1L29,12.8l-0.1,0.1l-1.7,1.7L27,14.8l-0.6,0.6l-0.1,0.1l-0.2,0.2l-0.1,0.1l-0.2,0.2l-0.1,0.1
	l-0.3,0.3l-0.1,0.1l-0.1,0.1l-0.1,0.1L25.2,17l-0.1,0.1L25,17.2L25,17.3l-0.1,0.1l-0.1,0.1l-0.1,0.1l-0.1,0.1l-0.1,0.1l-0.1,0.1
	l-0.1,0.1l-0.1,0.1l-0.1,0.1L24,18.8L24,18.9l-0.2,0.4l-0.1,0.1l-0.2,0.4l-0.1,0.1l-0.2,0.4l-0.1,0.2l-0.4,0.9l-0.1,0.2l-0.1,0.3
	l-0.2,0.6l-0.1,0.1L22,23.1l-0.1,0.1l-0.1,0.2L21.7,24l-0.1,0.2l-0.3,1.1l-0.1,0.5l-0.1,0.4l-0.1,0.5l-0.1,0.8v2.3h0.1v0.7h0.1v0.6
	h0.1v0.5h0.1V32h0.1v0.4h0.1v0.4h0.1v0.3h0.1v0.2h0.1v0.3h0.1v0.3h0.1v0.3H22v0.2H22v0.2h0.1v0.2h0.1V35h0.1v0.2h0.1v0.2h0.1v0.1
	h0.1v0.2h0.1V36h0.1v0.2h0.1v0.1h0.1v0.2h0.1v0.1h0.1v0.1H23V37H23v0.1h0.1v0.1h0.1v0.1h0.1v0.2h0.1l0.1,0.1v0.1h0.1V38h0.1v0.1h0.1
	v0.1h0.1l0.1,0.1v0.1h0.1v0.1h0.1v0.1H24l0.1,0.1V39h0.1v0.1h0.1l0.1,0.1v0.1h0.1l0.1,0.1v0.1h0.1l0.1,0.1v0.1h0.1l0.1,0.1V40h0.1
	l0.1,0.1v0.1h0.1l0.1,0.1v0.1H25l0.1,0.1v0.1h0.1l0.1,0.1v0.1h0.1l0.1,0.1v0.1h0.1l0.1,0.1v0.1h0.1l0.1,0.1v0.1H26l0.3,0.3v0.1h0.1
	l0.3,0.3v0.1h0.1l0.3,0.3v0.1h0.1l1,1v0.1h0.1l0.1,0.1l1.1,1.1l0.1,0.1l0.3,0.3l0.1,0.1l0.3,0.3l0.1,0.1l0.4,0.4l0.1,0.1l0.1,0.1
	l0.1,0.1l0.1,0.1l0.1,0.1l0.1,0.1l0.1,0.1l0.1,0.1l0.1,0.1l0.1,0.1l0.1,0.1l0.1,0.1l0.3,0.1l0.1,0.1l0.1,0.1l0.1,0.1l0.1,0.1
	l0.1,0.1l0.1,0.1l0.1,0.1l0.1,0.1l0.1,0.1l0.3,0.1l0.1,0.1l0.3,0.1l0.1,0.1l0.3,0.1l0.1,0.1l0.3,0.1l0.1,0.1l0.3,0.1l0.1,0.1
	l0.3,0.1l0.1,0.1l0.7,0.4l0.1,0.1l0.9,0.4l0.1,0.1l2.7,1.4l0.2,0.1l0.3,0.1l0.2,0.1l0.4,0.2l0.2,0.1l0.4,0.2l0.2,0.1l0.3,0.1
	l0.4,0.1l0.1,0.1l0.2,0.1l0.1,0.1l0.2,0.1l0.1,0.1l0.2,0.1l0.1,0.1l0.4,0.1l0.1,0.1l1.5,0.5l0.1,0.1l0.4,0.1l0.3,0.1l0.4,0.1
	l0.3,0.1l0.4,0.1l0.3,0.1l0.2,0.1l0.3,0.1l0.2,0.1l2.3,0.6l1.1,0.2l0.4,0.1l1.8,0.4l0.9,0.1l0.6,0.1l0.5,0.1l0.6,0.1l0.5,0.1
	l0.6,0.1l0.5,0.1l0.8,0.1l0.9,0.1l0.9,0.1l0.9,0.1l1.6,0.1l6.1,0.1v-0.1l1.4-0.1l1.1-0.1l0.9-0.1l1.6-0.1l0.7-0.1l0.6-0.1l0.5-0.1
	l1.7-0.2l3-0.5l0.4-0.1l0.3-0.1l0.7-0.1l0.3-0.1l0.4-0.1l0.3-0.1l0.4-0.1l0.9-0.2l0.2-0.1l0.3-0.1l0.2-0.1l0.6-0.1l0.2-0.1l0.3-0.1
	l0.2-0.1l0.3-0.1l1.7-0.6l0.1-0.1l1.3-0.4l0.1-0.1l0.2-0.1l0.1-0.1l0.2-0.1l0.1-0.1l0.2-0.1l0.1-0.1l0.4-0.1l0.1-0.1l0.2-0.1
	l0.1-0.1l0.2-0.1l0.1-0.1l0.2-0.1l0.6-0.3l0.2-0.1l0.4-0.2l0.2-0.1l0.4-0.2l0.2-0.1l1.9-0.9l0.1-0.1l1.1-0.6l0.1-0.1l0.3-0.1
	l0.1-0.1l0.3-0.1l0.1-0.1l0.3-0.1l0.1-0.1l0.4-0.2l0.1-0.1l0.3-0.1l0.1-0.1l0.1-0.1l0.1-0.1l0.1-0.1l0.1-0.1l0.1-0.1l0.1-0.1
	l0.1-0.1l0.1-0.1l0.1-0.1l0.1-0.1l0.1-0.1l0.1-0.1l0.1-0.1l0.1-0.1l0.1-0.1l0.1-0.1l0.1-0.1l0.1-0.1l0.1-0.1l0.1-0.1l0.1-0.1
	l0.2-0.2l0.1-0.1l0.2-0.2l0.1-0.1l0.2-0.2l0.1-0.1l0.2-0.2l0.1-0.1l0.2-0.2l0.1-0.1l0.2-0.2l0.1-0.1l0.9-0.9l0.1-0.1l1.8-1.8
	l0.1-0.1l0.4-0.4l0.1-0.1l0.4-0.4l0.1-0.1l0.1-0.1l0.1-0.1l0.2-0.2l0.1-0.1l0.1-0.1l0.1-0.1l0.1-0.1l0.1-0.1l0.1-0.1l0.1-0.1
	l0.1-0.1l0.1-0.1L110,40l0.1-0.1l0.1-0.1l0.1-0.1l0.1-0.1l0.1-0.3l0.1-0.1l0.1-0.3l0.1-0.1l0.1-0.1l0.1-0.1l0.1-0.3l0.1-0.1l0.9-1.9
	l0.1-0.2l0.1-0.1l0.1-0.2l0.1-0.1l0.1-0.2l0.1-0.1l0.1-0.4l0.1-0.1l0.1-0.2l0.1-0.3l0.1-0.2l0.1-0.3l0.1-0.2l0.1-0.6l0.2-1.1
	l0.1-0.5l0.1-0.8l0.1-3.1h-0.1v-0.8h-0.1v-0.5h-0.1v-0.5h-0.1v-0.4h-0.1V25h-0.1v-0.4h-0.1v-0.3H113V24H113v-0.2h-0.1v-0.2h-0.1
	v-0.2h-0.1v-0.3h-0.1v-0.2h-0.1v-0.2h-0.1v-0.2h-0.1v-0.1h-0.1v-0.2h-0.1v-0.1h-0.1v-0.2h-0.1v-0.1h-0.1v-0.2H112v-0.1H112V21h-0.1
	v-0.1h-0.1v-0.1h-0.1v-0.1h-0.1v-0.1h-0.1v-0.1h-0.1v-0.1h-0.1V20h-0.1v-0.1h-0.1v-0.1l-0.1-0.1h-0.1v-0.1h-0.1v-0.1H111v-0.1
	l-0.1-0.1h-0.1V19h-0.1v-0.1l-0.1-0.1h-0.1v-0.1h-0.1v-0.1l-0.1-0.1h-0.1v-0.1l-0.1-0.1h-0.1v-0.1l-0.1-0.1h-0.1v-0.1l-0.1-0.1H110
	v-0.1l-0.1-0.1h-0.1v-0.1l-0.1-0.1h-0.1V17l-0.1-0.1h-0.1v-0.1l-0.1-0.1h-0.1v-0.1l-0.2-0.2h-0.1v-0.1l-0.3-0.3h-0.1v-0.1l-0.3-0.3
	h-0.1v-0.1l-0.3-0.3h-0.1v-0.1l-0.8-0.8H107v-0.1l-1.1-1.1l-0.1-0.1l-0.8-0.8l-0.1-0.1l-0.3-0.3l-0.1-0.1l-0.3-0.3l-0.1-0.1
	l-0.3-0.3l-0.1-0.1l-0.1-0.1l-0.1-0.1l-0.1-0.1l-0.1-0.1l-0.1-0.1l-0.1-0.1l-0.1-0.1l-0.1-0.1l-0.1-0.1l-0.1-0.1l-0.1-0.1l-0.1-0.1
	l-0.1-0.1l-0.2-0.1l-0.1-0.1l-0.1-0.1l-0.1-0.1L101,9L100.9,9l-0.1-0.1l-0.1-0.1l-0.1-0.1l-0.1-0.1l-0.3-0.1l-0.1-0.1L100,8.4
	l-0.1-0.1L99.4,8L99.3,8l-0.6-0.3l-0.1-0.1l-1-0.5L97.6,7L95,5.7l-0.2-0.1l-0.9-0.4l-0.2-0.1L93.4,5l-0.2-0.1l-0.3-0.1l-0.2-0.1
	l-0.1-0.1l-0.2-0.1l-0.3-0.1l-0.2-0.1l-0.1-0.1l-0.2-0.1l-0.1-0.1L90.9,4l-0.1-0.1l-0.6-0.2L90,3.7l-0.6-0.2l-0.1-0.1L89,3.3
	l-0.3-0.1l-1.1-0.4l-0.3-0.1l-0.6-0.2l-0.6-0.1l-0.2-0.1l-0.6-0.1l-0.2-0.1l-1.1-0.3l-0.4-0.1l-0.3-0.1l-0.4-0.1l-0.3-0.1l-0.4-0.1
	L82,1.4l-0.4-0.1l-0.4-0.1l-0.9-0.1L80,1.1l-0.9-0.1l-0.4-0.1l-1.3-0.2l-0.6-0.1l-0.5-0.1l-1.3-0.1l-0.8-0.1l-0.7-0.1l-0.9-0.1
	l-1.1-0.1L69.4,0H65.5z"></path>
<g id="Group_3239">
<g>
<g id="Group_3238">
<path id="Path_655" fill="#191F27" d="M0,82.4C0,76,2.9,68.7,20.4,68.7h21v5.7H21.2c-7.7,0-10.5,2.8-10.5,7.9c0,5.2,2.9,8,10.5,8
				h10.6v-4.8H19.2v-5.7h22.3V96h-21C2.9,96,0,88.8,0,82.4"></path>
<path id="Path_656" fill="#191F27" d="M68,76.1l-6,8.7h10l3.7,5.5H58.3L54.3,96H43.6l18.9-27.4h11.1L92.5,96H81.4L68,76.1z"></path>
<path id="Path_657" fill="#191F27" d="M90.5,82.3c0-6.5,2.9-13.6,20.4-13.6H130v5.7h-18.4c-7.7,0-10.5,2.7-10.5,7.9
				c-0.1,5.2,2.8,8,10.5,8H130v5.7h-19.2C93.4,95.9,90.5,88.8,90.5,82.3"></path>
</g>
</g>
</g>
</svg>