<svg version="1.2" xmlns="http://www.w3.org/2000/svg" viewBox="0 0 986 253" width="986" height="253">
	<title>313424789_478161814341278_4403040809293527310_n-svg</title>
	<style>
		.s0 { fill: #ca171d } 
	</style>
	<g id="#ca171dff">
		<path id="Layer" class="s0" d="m767.7 6.6c40-9.8 82.8-8.8 122.2 3.6 17.8 5.7 35 13.8 50.3 24.6 17 11.7 31.7 27.1 41.5 45.3 1.5 3.6 4.5 7.2 2.8 11.3-3.2 1.8-6.9 1.3-10.4 1.3-28.7 0-57.4 0-86.2 0-3.6 0-6.7-2.3-8.9-5.1-13.4-17.2-35.4-26.8-57-26.5-20.3 0-40.5 8.7-53.8 24.1-15 16.3-20.2 41-12.4 61.8 3.1 8.5 8 16.3 14.4 22.8 13.7 14.6 33.9 22.4 53.8 21.9 19.4-0.2 38.8-8.3 52-22.7 3.2-3.6 6.3-8.8 11.9-8.7 12-0.9 24.1-0.2 36.1-0.4 17.3 0 34.7-0.1 52 0 3 0.6 7.3-0.2 8.9 3.1 1.1 2.2-0.3 4.6-1.2 6.6-8 15.8-19.5 29.8-33.2 40.9-15.1 12.5-32.5 22-50.9 28.9-45 16.5-95.3 17.7-141.2 4.2-20.6-6.2-40.4-15.5-57.6-28.4-15.1-11.5-28.6-25.6-37.4-42.5-11.9-21.9-15-48.6-8-72.7 6.8-23.6 22.5-43.9 41.6-59.1 20.5-16.6 45.2-27.6 70.7-34.3z"/>
		<path id="Layer" class="s0" d="m189.4 6.4c3.7-1.2 7.7-0.6 11.5-0.7 25.1 0 50.1 0 75.1 0 2.8 0.8 3.4 3.8 3.3 6.4q0 71.9 0 143.9c-0.1 7.3 0.3 14.6-0.7 21.9-1.7 14.1-7.3 27.6-16 38.7-0.3 0.3-1.1 0.9-1.5 1.1l-0.3 0.2-0.1 0.3c-0.7 2.5-3 3.9-4.7 5.8-14.9 15-36.1 23-57.1 23.3-34 0-68 0-101.9 0-12.7-0.1-25.6 0.8-37.9-2.8-33.2-9.1-59.3-41.7-58.2-76.5 0.4-6.8-1-13.8 0.9-20.4 27.4-0.7 54.9-0.1 82.3-0.3 2.2 0.2 5.6-0.9 6.4 2 1.5 7.6-0.1 15.4 0.9 23.1 2.2 11 12.5 19.5 23.6 19.9 7 0 14 0.2 21-0.4 10.3-0.1 20.7 0.1 31.1-0.2 11.4-0.7 21.5-11.2 21.4-22.7 0-52 0-104 0-156-0.1-2.3 0.3-4.5 0.9-6.6z"/>
		<path id="Layer" class="s0" d="m418.7 13.6c2.7-4.6 8-6.9 13.3-6.9 26.3 0.1 52.6-0.1 79 0.1 6.6-0.4 11 5.1 14 10.2 44.9 74.1 89.6 148.4 134.5 222.5 1.4 2.1 2.2 4.4 2.4 6.9-8.5 1.6-17.3 0.6-25.9 0.9-19 0-38-0.1-56.9 0-4.3-0.2-9.3-0.5-11.8-4.5-7-11.8-14.2-23.5-21-35.4-41.4-0.2-82.8-0.1-124.3-0.1-1.6 0-3.2-0.4-4.8-0.7 0.3-1.8 0.3-3.7 1.3-5.2q13.6-22.8 27-45.8c1.4-0.7 2.8-1.8 4.4-1.8 21.4 0 42.7 0.2 64-0.1-8.2-12.8-15.4-26.3-23.3-39.3-5.2-9.1-10.7-18-15.7-27.1-1.1-2-2.8-4.4-5.3-3.9-3.2 2-4.5 5.7-6.5 8.8-14 23.3-27.9 46.7-41.9 70-8 13.4-15.9 26.8-24 40-8.5 14.9-17.8 29.3-26.2 44.2-3.9 1.3-8 0.8-12 0.9-24.7 0-49.3 0-74 0-1.9 0-3.6-0.6-5.4-1.1-0.1-2.5-0.1-5.1 1.5-7.2 40.6-66.4 80.9-132.9 121.7-199.2 5.1-8.9 10.6-17.4 15.9-26.2z"/>
	</g>
</svg>