<svg width="425" height="267" viewBox="0 0 425 267" fill="none" xmlns="http://www.w3.org/2000/svg">
<path fill-rule="evenodd" clip-rule="evenodd" d="M0.265931 213.764H17.6192V253.473L72.4411 213.764H89.586H99.1746H102.197L83.4368 240.341L118.821 266.136H92.0874L66.0313 247.063L79.5284 228.042L26.7389 266.241H17.6192H0.265931H0.00537109L0.265931 266.032V213.764ZM0.0574832 0H61.3934L211.632 37.9897L360.881 0H421.8L309.03 62.6908L341.704 71.133L211.632 165.664L80.6748 71.133L113.558 62.6908L0.0574832 0ZM211.632 53.0501L70.7214 9.64073L42.0598 10.0055L173.643 64.0457L137.946 75.5104L211.632 115.011L284.798 75.5104L249.309 64.0457L380.059 10.0055L351.605 9.64073L211.632 53.0501ZM272.916 213.764H290.27V266.241H272.916V213.764ZM326.435 265.928H323.465L342.121 239.351L306.945 213.555H333.47L359.37 232.628L345.977 251.649L398.402 213.451H407.47H424.667H424.927L424.667 213.659V265.928H407.47V226.218L353.012 265.928H335.972H326.435ZM211.789 213.764H207.463H182.241L131.171 266.241H157.905L196.364 225.541L235.448 266.241H264.161L211.789 213.764Z" fill="black"/>

</svg>
