<svg width="18" height="18" viewBox="0 0 18 18" fill="none" xmlns="http://www.w3.org/2000/svg">
<g id="manual-transmission 1">
<path id="Vector" d="M17 2.86666C17 1.80647 16.1162 0.952693 15.0451 1.00204C14.0968 1.04572 13.3237 1.80979 13.2698 2.7576C13.2248 3.5481 13.6722 4.23932 14.3333 4.55344V7.13332C14.3333 7.72241 13.8558 8.19997 13.2667 8.19997H10.6868C10.5024 7.81188 10.1881 7.49756 9.80004 7.31319V4.55344C10.4612 4.23928 10.9086 3.5481 10.8636 2.7576C10.8097 1.80979 10.0366 1.04572 9.08829 1.00204C8.01723 0.952724 7.13338 1.80647 7.13338 2.86666C7.13338 3.61125 7.56945 4.25385 8.20004 4.55344V7.31322C7.81195 7.49763 7.49763 7.81191 7.31326 8.2H3.66667V4.55344C4.32786 4.23928 4.7752 3.5481 4.73023 2.7576C4.67632 1.80979 3.90326 1.04572 2.95492 1.00204C1.88386 0.952724 1.00001 1.80647 1.00001 2.86666C1.00001 3.61125 1.43608 4.25385 2.06667 4.55344V13.4465C1.40548 13.7607 0.958139 14.4519 1.00311 15.2424C1.05701 16.1902 1.83008 16.9542 2.77842 16.9979C3.84948 17.0472 4.73332 16.1935 4.73332 15.1333C4.73332 14.3887 4.29726 13.7461 3.66667 13.4465V9.8H7.3132C7.4976 10.1881 7.81188 10.5024 8.19998 10.6868V13.4466C7.53879 13.7607 7.09145 14.4519 7.13642 15.2424C7.19032 16.1902 7.96338 16.9543 8.91173 16.998C9.98279 17.0473 10.8666 16.1935 10.8666 15.1333C10.8666 14.3887 10.4306 13.7462 9.79998 13.4466V10.6868C10.1881 10.5024 10.5024 10.1881 10.6868 9.8H13.2666C14.7394 9.8 15.9333 8.6061 15.9333 7.13335V4.55344C16.5639 4.25385 17 3.61125 17 2.86666Z" fill="#262626"/>
</g>
</svg>
